<svg width="200" height="60" viewBox="0 0 200 60" fill="none" xmlns="http://www.w3.org/2000/svg">
<g opacity="0.7">
<rect y="2" width="200" height="55.0388" fill="#5E5E5E"/>
<g clip-path="url(#clip0_654_2891)">
<path d="M176.699 36.8857H180.798V25.6308L177.181 27.9494L175.686 25.7274L182.293 20.8487H184.415V36.8857H188.369V40.0255H176.699V36.8857ZM145.835 26.2588C145.69 25.7758 145.497 25.3893 145.256 25.0029C144.967 24.6648 144.581 24.3266 144.099 24.0851C143.665 23.9402 143.134 23.7953 142.507 23.7953C141.591 23.7953 140.819 24.0368 140.337 24.6165C139.759 25.1478 139.517 25.9207 139.517 26.8868C138.071 29.7367 147.571 32.007 145.835 26.2588ZM135.852 27.0317C135.852 18.3369 149.693 18.3852 149.693 27.9011C149.693 30.0265 149.403 31.7655 148.777 33.3112C147.185 37.7552 143.665 40.1221 139.132 40.4119L138.312 37.5137C142.797 37.1272 148.921 31.0409 144.099 32.6349C142.845 33.118 141.012 32.9248 139.71 32.5383C138.264 32.0553 137.01 31.0409 136.383 29.6401C136.045 28.9155 135.852 28.0944 135.852 27.0317ZM157.119 36.8857H161.122V25.6308L157.602 27.9494L156.059 25.7274L162.617 20.8487H164.787V36.8857H168.742V40.0255H157.119V36.8857ZM171.876 29.4952C172.985 29.4952 173.854 30.3163 173.854 31.4756C173.854 32.5383 172.985 33.3595 171.876 33.3595C170.767 33.3595 169.947 32.5383 169.947 31.4756C169.947 30.3163 170.767 29.4952 171.876 29.4952ZM153.503 29.4952C154.612 29.4952 155.48 30.3163 155.48 31.4756C155.48 32.5383 154.612 33.3595 153.503 33.3595C152.442 33.3595 151.574 32.5383 151.574 31.4756C151.574 30.3163 152.442 29.4952 153.503 29.4952ZM25.2244 37.3688H18.5694L17.6049 40.5085H11.625L18.7623 21.4767H25.2244L32.3617 40.5085H26.1889L25.2244 37.3688ZM24.0188 33.2146L21.8969 26.4037L19.8715 33.2146H24.0188ZM52.4232 40.5085H46.5398V26.1622H40.1259V40.5085H34.1942V21.4767H52.4232V40.5085ZM55.0274 21.4767H72.8706V26.1622H66.8425V40.5085H61.0073V26.1622H55.0274V21.4767ZM75.523 21.4767H91.2443V25.5342H81.4064V28.5774H90.5209V32.4417H81.4064V36.2095H91.5336V40.5085H75.523V21.4767ZM111.981 40.5085H105.374L103.059 35.6298C102.529 34.4222 102.095 33.0214 100.552 33.0214V40.5085H94.6682V21.4767H100.552V28.7706C105.76 28.3359 99.2014 21.3318 111.354 21.3318V25.3893C110.534 25.3893 109.522 25.3893 108.846 25.9207C108.364 26.3071 107.978 26.9351 107.689 27.7562C107.351 28.6257 107.014 29.2537 106.676 29.6884C104.699 32.2002 106.869 30.0265 109.425 35.2917L111.981 40.5085ZM125.773 37.3688H119.118L118.202 40.5085H112.174L119.311 21.4767H125.773L132.911 40.5085H126.786L125.773 37.3688ZM124.568 33.2146L122.446 26.4037L120.42 33.2146H124.568Z" fill="#555555"/>
<path d="M176.699 34.6638H180.798V23.4089L177.181 25.7275L175.686 23.5538L182.293 18.5785H184.415V34.6638H188.369V37.8035H176.699V34.6638ZM139.517 24.6648C139.517 26.6453 140.916 27.6596 142.797 27.6596C143.906 27.6596 145.208 27.3215 145.98 26.452C145.98 26.2588 146.028 26.0656 146.028 25.8724C146.028 25.0995 146.124 24.9063 145.835 24.0368C145.546 23.0224 145.063 22.3945 144.099 21.9114C143.038 21.3801 141.157 21.4284 140.337 22.3945C139.759 22.9258 139.517 23.6987 139.517 24.6648ZM136.286 22.3462C137.01 20.6555 138.022 19.6411 139.71 19.0132C140.578 18.6751 141.495 18.5302 142.556 18.5302C144.774 18.5302 146.558 19.1581 147.764 20.3657C149.018 21.6216 149.693 23.4089 149.693 25.6792C149.693 29.0122 148.825 32.4901 146.51 34.9053C144.581 36.9341 141.88 38.045 139.132 38.1417L138.312 35.2917C140.241 35.0502 141.88 34.5671 143.375 33.2629C144.533 32.2968 145.304 30.896 145.642 29.4469C145.208 29.9299 144.677 30.2198 144.099 30.413C142.797 30.7994 141.012 30.7511 139.71 30.3164C138.264 29.8333 137.058 28.8189 136.383 27.4181C135.659 25.9207 135.659 23.8436 136.286 22.3462ZM157.119 34.6638H161.122V23.4089L157.602 25.7275L156.059 23.5538L162.617 18.5785H164.787V34.6638H168.742V37.8035H157.119V34.6638ZM171.876 27.2249C172.985 27.2249 173.854 28.1427 173.854 29.2054C173.854 30.2681 172.985 31.1859 171.876 31.1859C170.767 31.1859 169.947 30.2681 169.947 29.2054C169.947 28.1427 170.767 27.2249 171.876 27.2249ZM153.503 27.2249C154.612 27.2249 155.48 28.1427 155.48 29.2054C155.48 30.2681 154.612 31.1859 153.503 31.1859C152.442 31.1859 151.574 30.2681 151.574 29.2054C151.574 28.1427 152.442 27.2249 153.503 27.2249ZM25.2244 35.1468H18.5694L17.6049 38.2866H11.625L18.7623 19.2547H25.2244L32.3617 38.2866H26.1889L25.2244 35.1468ZM24.0188 31.0409L21.8969 24.1334L19.8715 31.0409H24.0188ZM52.4232 38.2866H46.5398V23.9402H40.1259V38.2866H34.1942V19.2547H52.4232V38.2866ZM55.0274 19.2547H72.8706V23.9402H66.8425V38.2866H61.0073V23.9402H55.0274V19.2547ZM75.523 19.2547H91.2443V23.3123H81.4064V26.3554H90.5209V30.2198H81.4064V33.9875H91.5336V38.2866H75.523V19.2547ZM111.981 38.2866H105.374L103.059 33.3595C102.529 32.2002 102.095 30.7511 100.552 30.7511V38.2866H94.6682V19.2547H100.552V26.5486C101.082 26.5486 101.468 26.3554 101.757 26.0173C102.095 25.6309 102.481 24.7131 103.108 23.0707C103.879 21.0903 104.41 19.931 106.628 19.3996C107.641 19.2064 109.232 19.1098 111.354 19.1098V23.1191H111.113C109.232 23.1191 108.268 23.747 107.689 25.5343C107.158 26.8385 106.58 27.9495 105.181 28.4808C106.049 28.7223 106.773 29.2054 107.4 29.9299C108.075 30.5579 108.702 31.6689 109.425 33.118L111.981 38.2866ZM125.773 35.1468H119.118L118.202 38.2866H112.174L119.311 19.2547H125.773L132.911 38.2866H126.786L125.773 35.1468ZM124.568 31.0409L122.446 24.1334L120.42 31.0409H124.568Z" fill="white"/>
</g>
</g>
<defs>
<clipPath id="clip0_654_2891">
<rect width="176.744" height="22.4806" fill="white" transform="translate(11.625 18.2791)"/>
</clipPath>
</defs>
</svg>
