<svg width="200" height="73" viewBox="0 0 200 73" fill="none" xmlns="http://www.w3.org/2000/svg">
<g opacity="0.7">
<g clip-path="url(#clip0_709_2978)">
<path d="M185.556 7.55313C185.578 7.89158 185.5 8.22908 185.33 8.52068C185.16 8.81228 184.908 9.04416 184.606 9.18545C184.305 9.32674 183.968 9.37074 183.641 9.31159C183.315 9.25245 183.013 9.09296 182.778 8.85436C182.542 8.61576 182.382 8.30936 182.321 7.97596C182.26 7.64255 182.299 7.29795 182.434 6.98803C182.569 6.67811 182.793 6.41756 183.077 6.24108C183.36 6.06459 183.689 5.98053 184.02 6.00009C184.221 5.99789 184.42 6.03643 184.607 6.11348C184.793 6.19054 184.962 6.30459 185.105 6.44902C185.248 6.59345 185.361 6.7654 185.438 6.95492C185.516 7.14444 185.556 7.34777 185.556 7.55313ZM182.844 7.55313C182.825 7.72178 182.841 7.89275 182.89 8.05479C182.94 8.21682 183.023 8.36623 183.133 8.49319C183.243 8.62015 183.379 8.72177 183.53 8.79136C183.682 8.86095 183.846 8.89693 184.012 8.89693C184.178 8.89693 184.342 8.86095 184.494 8.79136C184.646 8.72177 184.781 8.62015 184.891 8.49319C185.002 8.36623 185.084 8.21682 185.134 8.05479C185.184 7.89275 185.199 7.72178 185.18 7.55313C185.199 7.38447 185.184 7.2135 185.134 7.05147C185.084 6.88943 185.002 6.74002 184.891 6.61306C184.781 6.4861 184.646 6.38448 184.494 6.31489C184.342 6.24531 184.178 6.20933 184.012 6.20933C183.846 6.20933 183.682 6.24531 183.53 6.31489C183.379 6.38448 183.243 6.4861 183.133 6.61306C183.023 6.74002 182.94 6.88943 182.89 7.05147C182.841 7.2135 182.825 7.38447 182.844 7.55313ZM183.775 8.35469H183.416V6.80166C183.612 6.78908 183.808 6.78908 184.004 6.80166C184.183 6.7796 184.364 6.82729 184.51 6.93525L184.674 7.25254C184.671 7.34094 184.639 7.42578 184.582 7.49271C184.526 7.55964 184.448 7.60458 184.363 7.61992V7.67002C184.51 7.67002 184.576 7.83701 184.625 8.0374C184.646 8.17008 184.684 8.29926 184.739 8.42149H184.363C184.316 8.29638 184.278 8.16803 184.249 8.0374C184.245 8.00055 184.234 7.96491 184.216 7.93276C184.198 7.90062 184.173 7.87266 184.144 7.85067C184.115 7.82868 184.082 7.81314 184.046 7.80504C184.011 7.79694 183.974 7.79646 183.939 7.80362H183.775V8.35469ZM183.775 7.48633H183.955C184.135 7.48633 184.298 7.48633 184.298 7.25254C184.298 7.01875 184.2 7.01875 183.971 7.01875H183.775V7.48633Z" fill="#6D6D6D"/>
<path fill-rule="evenodd" clip-rule="evenodd" d="M75.2811 16.6708V32.1845C75.2811 33.1864 75.6731 34.4055 77.1593 34.4055H79.9357C79.9357 35.8249 79.9357 37.7453 79.9357 39.1814H70.1365C65.0083 39.1814 61.8236 34.7394 61.8236 28.711V17.272C61.8399 11.9115 65.0083 6 68.8953 6H80.001V10.2249C75.1014 10.2249 75.2811 10.3084 75.2811 16.6708ZM90.6168 25.8554L91.76 19.3594L92.9359 25.8053L90.6168 25.8554ZM83.1041 39.2148L89.4572 6H101.461L107.406 39.1814H95.0264L93.7198 30.6314H89.5715L87.9383 39.1814L83.1041 39.2148ZM41.9967 25.9389L43.1236 19.493L44.3974 25.9389H41.9967ZM46.6676 39.1814L45.1977 30.6314H40.9841L39.1876 39.1814H34.386L40.9351 6H53.0697L59.2268 39.1814H46.6676ZM181.161 6V11.277H176.261V39.1814H164.502V11.277H158.998V6H181.161ZM112.404 39.1814L112.338 6H124.424V34.3888H128.948V39.2482L112.404 39.1814ZM15 39.1814V6H27.2326V34.6559H30.499V39.1814H15ZM142.65 39.5989C139.743 39.2816 132.508 38.3298 132.508 34.2385L132.426 6H144.561V32.4015C144.561 34.2552 146.439 34.5724 148.415 34.4055C148.693 34.4355 148.974 34.4065 149.24 34.3201C149.507 34.2338 149.753 34.0921 149.963 33.9039C150.173 33.7157 150.343 33.4851 150.461 33.2265C150.58 32.968 150.645 32.6871 150.653 32.4015V6H155.03V34.489C154.964 39.8661 145.786 39.5321 142.699 39.5989H142.65Z" fill="#6D6D6D"/>
<path d="M176.196 42.5881H15V43.7738H176.196V42.5881Z" fill="#6D6D6D"/>
</g>
<path d="M22.8347 63.5805C20.9056 63.5805 19.3 62.9395 18.018 61.6575C16.7482 60.3633 16.1133 58.7272 16.1133 56.7492C16.1133 54.7712 16.7482 53.1412 18.018 51.8592C19.3 50.565 20.9056 49.9179 22.8347 49.9179C24.7761 49.9179 26.3816 50.565 27.6514 51.8592C28.9335 53.1412 29.5745 54.7712 29.5745 56.7492C29.5745 58.7272 28.9335 60.3633 27.6514 61.6575C26.3816 62.9395 24.7761 63.5805 22.8347 63.5805ZM22.8347 62.6465C24.5197 62.6465 25.881 62.0787 26.9189 60.9432C27.9567 59.7955 28.4756 58.3975 28.4756 56.7492C28.4756 55.1009 27.9506 53.709 26.9005 52.5735C25.8627 51.4258 24.5074 50.8519 22.8347 50.8519C21.162 50.8519 19.8067 51.4258 18.7689 52.5735C17.7311 53.709 17.2122 55.1009 17.2122 56.7492C17.2122 58.3975 17.7311 59.7955 18.7689 60.9432C19.8067 62.0787 21.162 62.6465 22.8347 62.6465Z" fill="#6D6D6D"/>
<path d="M36.615 67.628V63.4706C35.0766 63.4462 33.8678 63.0433 32.9887 62.2619C32.1096 61.4682 31.6701 60.3755 31.6701 58.9836C31.6701 57.6039 32.1096 56.5172 32.9887 55.7236C33.8678 54.9177 35.0766 54.5087 36.615 54.4965V49.2952H37.6223V54.4965C39.1607 54.5087 40.3695 54.9177 41.2486 55.7236C42.1277 56.5172 42.5672 57.6039 42.5672 58.9836C42.5672 60.3755 42.1277 61.4682 41.2486 62.2619C40.3695 63.0433 39.1607 63.4462 37.6223 63.4706V67.628H36.615ZM36.615 62.6098V55.339C35.3818 55.3634 34.4233 55.693 33.7396 56.328C33.0559 56.9506 32.714 57.8297 32.714 58.9652C32.714 60.1374 33.0498 61.0409 33.7213 61.6758C34.405 62.2985 35.3696 62.6098 36.615 62.6098ZM37.6223 62.6098C38.8677 62.6098 39.8261 62.2985 40.4977 61.6758C41.1814 61.0409 41.5233 60.1374 41.5233 58.9652C41.5233 57.8297 41.1814 56.9445 40.4977 56.3096C39.8261 55.6747 38.8677 55.3512 37.6223 55.339V62.6098Z" fill="#6D6D6D"/>
<path d="M45.2626 63.2325V54.698H46.2699V63.2325H45.2626ZM46.2699 51.8409C46.1234 51.9874 45.9524 52.0607 45.7571 52.0607C45.5617 52.0607 45.3908 51.9874 45.2443 51.8409C45.0978 51.6944 45.0245 51.5173 45.0245 51.3098C45.0245 51.1022 45.0978 50.9252 45.2443 50.7786C45.3908 50.6321 45.5617 50.5589 45.7571 50.5589C45.9524 50.5589 46.1234 50.6321 46.2699 50.7786C46.4286 50.9252 46.508 51.1022 46.508 51.3098C46.508 51.5173 46.4286 51.6944 46.2699 51.8409Z" fill="#6D6D6D"/>
<path d="M57.2799 66.0347V63.2325H49.716V54.698H50.7233V62.3718H55.8331V54.698H56.8221V62.3718H58.214V66.0347H57.2799Z" fill="#6D6D6D"/>
<path d="M60.5903 63.2325V54.698H61.5976V63.2325H60.5903ZM61.5976 51.8409C61.4511 51.9874 61.2801 52.0607 61.0848 52.0607C60.8894 52.0607 60.7185 51.9874 60.572 51.8409C60.4255 51.6944 60.3522 51.5173 60.3522 51.3098C60.3522 51.1022 60.4255 50.9252 60.572 50.7786C60.7185 50.6321 60.8894 50.5589 61.0848 50.5589C61.2801 50.5589 61.4511 50.6321 61.5976 50.7786C61.7563 50.9252 61.8357 51.1022 61.8357 51.3098C61.8357 51.5173 61.7563 51.6944 61.5976 51.8409Z" fill="#6D6D6D"/>
<path d="M70.5015 52.079C70.0497 52.4941 69.4698 52.7017 68.7616 52.7017C68.0534 52.7017 67.4674 52.4941 67.0034 52.079C66.5516 51.6516 66.283 51.0961 66.1976 50.4124L66.8935 50.2842C66.979 50.797 67.1926 51.1938 67.5345 51.4746C67.8764 51.7554 68.2854 51.8958 68.7616 51.8958C69.2378 51.8958 69.6468 51.7554 69.9887 51.4746C70.3305 51.1938 70.5442 50.797 70.6297 50.2842L71.3256 50.4124C71.2402 51.0961 70.9654 51.6516 70.5015 52.079ZM65.0437 63.2325V54.698H66.051V61.8406L71.4172 54.698H72.4978V63.2325H71.5271V56.0349H71.4905L66.1243 63.2325H65.0437Z" fill="#6D6D6D"/>
<path d="M75.9538 63.2325V54.698H76.9611V58.3792H82.199V54.698H83.188V63.2325H82.199V59.2217H76.9611V63.2325H75.9538Z" fill="#6D6D6D"/>
<path d="M86.6492 63.2325V54.698H87.6565V61.8406L93.0226 54.698H94.1032V63.2325H93.1325V56.0349H93.0959L87.7297 63.2325H86.6492Z" fill="#6D6D6D"/>
<path d="M103.017 52.079C102.565 52.4941 101.985 52.7017 101.277 52.7017C100.569 52.7017 99.9828 52.4941 99.5189 52.079C99.0671 51.6516 98.7985 51.0961 98.713 50.4124L99.409 50.2842C99.4944 50.797 99.7081 51.1938 100.05 51.4746C100.392 51.7554 100.801 51.8958 101.277 51.8958C101.753 51.8958 102.162 51.7554 102.504 51.4746C102.846 51.1938 103.06 50.797 103.145 50.2842L103.841 50.4124C103.756 51.0961 103.481 51.6516 103.017 52.079ZM97.5592 63.2325V54.698H98.5665V61.8406L103.933 54.698H105.013V63.2325H104.043V56.0349H104.006L98.6398 63.2325H97.5592Z" fill="#6D6D6D"/>
<path d="M113.048 63.2325V54.698H114.531L117.92 61.7674L121.326 54.698H122.773V63.2325H121.784V55.8518H121.747L118.176 63.2325H117.645L114.055 55.8518V63.2325H113.048Z" fill="#6D6D6D"/>
<path d="M128.5 63.4706C127.743 63.4706 127.066 63.257 126.467 62.8296C125.869 62.4023 125.57 61.7674 125.57 60.9249C125.57 60.4365 125.674 60.0153 125.881 59.6612C126.101 59.3071 126.376 59.0324 126.706 58.837C127.035 58.6295 127.444 58.4708 127.933 58.3609C128.433 58.2388 128.915 58.1594 129.379 58.1228C129.843 58.0861 130.375 58.0678 130.973 58.0678H131.614V57.6832C131.614 56.096 130.808 55.3023 129.196 55.3023C128.195 55.3023 127.347 55.6381 126.651 56.3096L126.101 55.6503C126.907 54.8689 127.969 54.4782 129.288 54.4782C130.277 54.4782 131.07 54.7407 131.669 55.2657C132.267 55.7907 132.566 56.5599 132.566 57.5733V61.3095C132.566 62.0787 132.615 62.7197 132.713 63.2325H131.815C131.718 62.6465 131.669 62.1215 131.669 61.6575H131.632C130.961 62.8662 129.917 63.4706 128.5 63.4706ZM128.738 62.6465C129.666 62.6465 130.375 62.3473 130.863 61.7491C131.364 61.1386 131.614 60.406 131.614 59.5513V58.8554H130.973C128.055 58.8554 126.596 59.5269 126.596 60.87C126.596 61.4804 126.803 61.9322 127.218 62.2252C127.646 62.5061 128.152 62.6465 128.738 62.6465Z" fill="#6D6D6D"/>
<path d="M135.887 63.2325V54.698H141.437V55.5404H136.895V63.2325H135.887Z" fill="#6D6D6D"/>
<path d="M145.831 63.4706C145.074 63.4706 144.397 63.257 143.798 62.8296C143.2 62.4023 142.901 61.7674 142.901 60.9249C142.901 60.4365 143.005 60.0153 143.212 59.6612C143.432 59.3071 143.707 59.0324 144.036 58.837C144.366 58.6295 144.775 58.4708 145.263 58.3609C145.764 58.2388 146.246 58.1594 146.71 58.1228C147.174 58.0861 147.705 58.0678 148.304 58.0678H148.945V57.6832C148.945 56.096 148.139 55.3023 146.527 55.3023C145.526 55.3023 144.677 55.6381 143.981 56.3096L143.432 55.6503C144.238 54.8689 145.3 54.4782 146.619 54.4782C147.608 54.4782 148.401 54.7407 149 55.2657C149.598 55.7907 149.897 56.5599 149.897 57.5733V61.3095C149.897 62.0787 149.946 62.7197 150.044 63.2325H149.146C149.048 62.6465 149 62.1215 149 61.6575H148.963C148.291 62.8662 147.248 63.4706 145.831 63.4706ZM146.069 62.6465C146.997 62.6465 147.705 62.3473 148.194 61.7491C148.694 61.1386 148.945 60.406 148.945 59.5513V58.8554H148.304C145.386 58.8554 143.926 59.5269 143.926 60.87C143.926 61.4804 144.134 61.9322 144.549 62.2252C144.977 62.5061 145.483 62.6465 146.069 62.6465Z" fill="#6D6D6D"/>
<path d="M155.617 63.4706C154.091 63.4706 152.956 62.9456 152.211 61.8956L152.944 61.3095C153.566 62.1764 154.451 62.6098 155.599 62.6098C156.246 62.6098 156.79 62.4633 157.229 62.1703C157.669 61.8773 157.888 61.4316 157.888 60.8333C157.888 60.2961 157.65 59.8871 157.174 59.6063C156.698 59.3254 156.094 59.185 155.361 59.185H154.647V58.3792H155.288C155.972 58.3792 156.533 58.2388 156.973 57.9579C157.412 57.6649 157.632 57.2559 157.632 56.7309C157.632 56.2547 157.437 55.9006 157.046 55.6686C156.668 55.4244 156.161 55.3023 155.526 55.3023C155.074 55.3023 154.641 55.4061 154.226 55.6137C153.823 55.8212 153.505 56.1082 153.273 56.4745L152.504 55.925C152.785 55.4611 153.194 55.107 153.731 54.8628C154.281 54.6064 154.891 54.4782 155.563 54.4782C156.478 54.4782 157.217 54.6735 157.779 55.0642C158.34 55.455 158.621 56.0105 158.621 56.7309C158.621 57.2315 158.45 57.6649 158.108 58.0312C157.779 58.3853 157.345 58.6173 156.808 58.7272V58.7638C157.431 58.8493 157.931 59.0812 158.31 59.4597C158.688 59.8382 158.877 60.3083 158.877 60.87C158.877 61.6758 158.572 62.3107 157.962 62.7747C157.363 63.2386 156.582 63.4706 155.617 63.4706Z" fill="#6D6D6D"/>
<path d="M161.714 63.2325V54.698H162.721V61.8406L168.087 54.698H169.168V63.2325H168.197V56.0349H168.161L162.794 63.2325H161.714Z" fill="#6D6D6D"/>
<path d="M172.624 63.2325V54.698H173.631V58.3792H178.869V54.698H179.858V63.2325H178.869V59.2217H173.631V63.2325H172.624Z" fill="#6D6D6D"/>
</g>
<defs>
<clipPath id="clip0_709_2978">
<rect width="170.554" height="37.7738" fill="white" transform="translate(15 6)"/>
</clipPath>
</defs>
</svg>
