<svg width="200" height="60" viewBox="0 0 200 60" fill="none" xmlns="http://www.w3.org/2000/svg">
<g opacity="0.7">
<path d="M31.3863 30.7148L24.5913 15.2923H17V36.7887H21.937V20.2042L29.2629 36.7887H33.2974L40.6764 20.2042V36.7887H45.5603V15.2923H38.0751L31.3863 30.7148ZM60.1589 15.2923L49.3294 36.8415H54.6911L56.9738 32.2465H68.865L71.1478 36.8415H76.6156L65.8391 15.2923H60.1589ZM59.0441 28.0739L62.9725 20.2042L66.8478 28.0739H59.0441ZM103.743 15.2923H96.7883L85.481 25.1162V15.2923H80.4378V36.7887H85.481V30.8732L89.4624 27.4401L97.9562 36.7887H104.433L93.1254 24.3239L103.743 15.2923ZM107.883 36.7887H128.905V32.5106H112.82V27.9155H127.154V23.6901H112.82V19.5704H128.905V15.2923H107.883V36.7887ZM174.559 15.2923H160.916V36.8415H165.959V29.3416H174.559C179.656 29.3416 183 26.912 183 22.3169C183 17.669 179.656 15.2923 174.559 15.2923ZM174.294 25.1162H165.959V19.5176H174.294C176.683 19.5176 178.01 20.5211 178.01 22.3169C178.01 24.0599 176.63 25.1162 174.294 25.1162ZM150.83 26.4894C150.83 30.2922 149.078 32.7747 144.619 32.7747C140.16 32.7747 138.355 30.2922 138.355 26.4894V15.2923H133.311V26.912C133.311 33.1444 137.028 37.1584 144.566 37.1584C152.051 37.1584 155.82 33.1444 155.82 26.912V15.2923H150.777V26.4894H150.83ZM144.619 12.493C145.203 12.493 145.787 12.5458 146.318 12.6514L148.972 8.58451C147.804 7.6338 146.53 7 144.619 7C142.708 7 141.381 7.58099 140.213 8.58451L142.867 12.6514C143.451 12.5458 144.035 12.493 144.619 12.493ZM44.3924 51.8944V46.4542H46.8343C47.7899 46.4542 48.3738 47.0352 48.3738 47.8275C48.3738 48.5141 47.8961 48.9894 47.4183 49.0951C48.0022 49.2007 48.48 49.7817 48.48 50.4155C48.48 51.3134 47.8961 51.8944 46.8874 51.8944H44.3924ZM47.6306 47.9331C47.6306 47.4577 47.3121 47.0352 46.6751 47.0352H45.0294V48.7782H46.6751C47.3121 48.7782 47.6306 48.4084 47.6306 47.9331ZM47.7368 50.3627C47.7368 49.8873 47.3652 49.412 46.7282 49.412H45.0294V51.3134H46.7282C47.3652 51.3134 47.7368 50.9437 47.7368 50.3627ZM50.3911 51.8944V46.4542H54.001V47.0352H51.0812V48.7782H53.9479V49.3592H51.0812V51.2606H54.001V51.8415H50.3911V51.8944ZM59.7873 51.8944L59.3096 50.6796H56.5491L56.0713 51.8944H55.275L57.5046 46.4542H58.354L60.5836 51.8944H59.7873ZM57.9293 47.1408L56.7614 50.0986H59.0972L57.9293 47.1408ZM61.9108 49.7817V46.4542H62.6009V49.7817C62.6009 50.7852 63.1318 51.419 64.1404 51.419C65.149 51.419 65.6799 50.7852 65.6799 49.7817V46.4542H66.37V49.7817C66.37 51.1549 65.6268 52 64.1404 52C62.654 52 61.9108 51.1021 61.9108 49.7817ZM69.8737 51.8944V47.0352H68.1218V46.4542H72.2626V47.0352H70.5107V51.8944H69.8737ZM75.607 51.8944V49.5704L73.4304 46.4014H74.2267L75.9255 48.9366L77.6242 46.4014H78.4205L76.244 49.5704V51.8944H75.607ZM87.1266 51.8944L85.9057 47.5106L84.6847 51.8944H83.9415L82.402 46.4542H83.1452L84.3662 50.9965L85.6402 46.4542H86.2242L87.4982 50.9965L88.7192 46.4542H89.4624L87.9229 51.8944H87.1266ZM91.055 51.8944V46.4542H91.7451V51.8944H91.055ZM95.1957 51.8944V47.0352H93.4439V46.4542H97.6377V47.0352H95.8858V51.8944H95.1957ZM103.265 51.8944V49.412H100.027V51.8944H99.3364V46.4542H100.027V48.831H103.265V46.4542H103.955V51.8944H103.265ZM105.813 49.1479C105.813 47.5106 106.928 46.2958 108.52 46.2958C110.166 46.2958 111.228 47.5106 111.228 49.1479C111.228 50.7852 110.113 52 108.52 52C106.928 52 105.813 50.7852 105.813 49.1479ZM110.591 49.1479C110.591 47.8803 109.794 46.9296 108.573 46.9296C107.352 46.9296 106.556 47.8803 106.556 49.1479C106.556 50.4155 107.352 51.3662 108.573 51.3662C109.794 51.3662 110.591 50.4155 110.591 49.1479ZM113.192 49.7817V46.4542H113.882V49.7817C113.882 50.7852 114.413 51.419 115.421 51.419C116.43 51.419 116.961 50.7852 116.961 49.7817V46.4542H117.651V49.7817C117.651 51.1549 116.908 52 115.421 52C113.935 52 113.192 51.1021 113.192 49.7817ZM121.102 51.8944V47.0352H119.35V46.4542H123.491V47.0352H121.792V51.8944H121.102ZM128.215 51.8944V46.4542H128.905V51.3134H131.453V51.8944H128.215ZM133.258 51.8944V46.4542H133.949V51.8944H133.258ZM140.744 51.8944V47.4049L138.886 51.8944H138.62L136.762 47.4049V51.8944H136.072V46.4542H137.028L138.726 50.5739L140.425 46.4542H141.381V51.8944H140.744ZM143.557 51.8944V46.4542H144.247V51.8944H143.557ZM147.698 51.8944V47.0352H145.946V46.4542H150.087V47.0352H148.335V51.8944H147.698ZM151.467 51.1021L151.892 50.5739C152.263 50.9965 152.847 51.3662 153.643 51.3662C154.599 51.3662 154.918 50.838 154.918 50.4155C154.918 48.9894 151.679 49.7817 151.679 47.8275C151.679 46.9296 152.476 46.2958 153.59 46.2958C154.44 46.2958 155.077 46.5599 155.555 47.0352L155.13 47.5106C154.705 47.0352 154.121 46.8768 153.537 46.8768C152.9 46.8768 152.422 47.2465 152.422 47.7218C152.422 48.9366 155.661 48.25 155.661 50.3099C155.661 51.1021 155.13 51.8944 153.643 51.8944C152.635 52 151.945 51.6303 151.467 51.1021Z" fill="#414141"/>
</g>
</svg>
