<svg width="200" height="60" viewBox="0 0 200 60" fill="none" xmlns="http://www.w3.org/2000/svg">
<g opacity="0.7">
<path d="M26.9267 15.5943C27.3409 13.0592 27.7386 10.6558 28.1294 8.25002C28.3564 6.85525 28.6311 5.4651 28.7709 4.06289C28.856 3.20543 29.2135 3.00031 30.0232 3.017C32.4047 3.06629 34.7911 3.08298 37.1749 3.01212C38.1692 2.98132 38.4746 3.25242 38.4581 4.26108C38.3988 7.79536 38.4344 11.3297 38.4344 14.8616C38.4344 25.9687 38.4179 37.0758 38.4602 48.1808C38.4654 49.354 38.193 49.7124 36.9619 49.7031C30.1155 49.6392 23.2668 49.6441 16.4205 49.7006C15.2817 49.7101 14.9954 49.4272 15.0001 48.2914C15.0403 33.6501 15.0357 19.0108 15.0047 4.37172C15.0024 3.37256 15.1633 2.96258 16.2926 3.0075C18.6717 3.10403 21.0605 3.06398 23.4443 3.01931C24.2137 3.00519 24.4742 3.25036 24.5854 4.01128C25.1039 7.55507 25.6886 11.0871 26.2615 14.6237C26.3089 14.8994 26.2302 15.2457 26.9267 15.5943ZM30.8826 29.2016C30.9842 29.2085 31.0864 29.218 31.188 29.2273C31.2092 29.5007 31.2494 29.7715 31.2494 30.0449C31.2543 35.7 31.2778 41.3548 31.2329 47.0122C31.2259 48.0347 31.4532 48.4801 32.5612 48.381C33.5672 48.2891 34.5945 48.2868 35.6007 48.3787C36.7772 48.4871 37.1512 48.1148 37.137 46.8944C37.0756 40.6832 37.1086 34.4724 37.1086 28.2615C37.1086 20.738 37.0898 13.2125 37.13 5.68896C37.1347 4.64513 36.8577 4.25132 35.7759 4.32449C34.5141 4.41177 33.2262 4.46363 31.9765 4.31524C30.4067 4.12912 29.9215 4.77221 29.7131 6.24014C28.9368 11.6852 28.0391 17.1118 27.1588 22.5381C27.0972 22.9104 27.2914 23.6243 26.6071 23.5676C26.1266 23.5278 26.3326 22.8963 26.1952 22.5427C26.1242 22.3589 26.1312 22.1469 26.1005 21.9466C25.239 16.5134 24.3605 11.0847 23.532 5.64891C23.385 4.6803 23.0466 4.24927 21.9932 4.32217C20.6297 4.41639 19.2472 4.4282 17.8881 4.31986C16.6121 4.21846 16.2833 4.64975 16.2879 5.91026C16.3351 18.5846 16.3093 31.2608 16.3258 43.9349C16.3282 45.3368 15.7174 47.196 16.5649 48.0275C17.5474 48.9913 19.4507 48.2139 20.9447 48.3692C21.8606 48.4634 22.192 48.1667 22.1544 47.2078C22.0809 45.344 22.133 43.473 22.133 41.6046V28.2589C22.4549 28.7703 22.5756 29.2981 22.6465 29.8329C23.4017 35.5372 24.1853 41.237 24.8673 46.9485C25.0234 48.2727 25.6649 48.3836 26.7683 48.4C27.9045 48.4165 28.3567 48.1079 28.4939 46.9298C28.953 42.9193 29.5308 38.9231 30.0753 34.9201C30.3286 33.0116 30.6102 31.1078 30.8826 29.2016ZM94.7321 16.1504C95.1771 13.396 95.6199 10.6393 96.0626 7.88239C96.271 6.58646 96.5312 5.29541 96.6615 3.9946C96.742 3.19363 97.0948 3.01212 97.8356 3.02162C100.167 3.05936 102.507 3.11122 104.836 3.00519C106.069 2.94871 106.332 3.34663 106.327 4.51318C106.282 16.0775 106.299 27.6394 106.299 39.2037C106.299 42.2313 106.266 45.2613 106.32 48.2917C106.339 49.2765 106.173 49.7075 105.02 49.6983C98.0701 49.6441 91.1195 49.651 84.169 49.6911C83.1914 49.696 82.8837 49.4508 82.886 48.4424C82.919 33.6971 82.9169 18.952 82.8883 4.20922C82.8883 3.31146 83.0707 2.98157 84.0482 3.01212C86.4297 3.0876 88.8185 3.08298 91.2 3.01212C92.1352 2.98645 92.3625 3.31146 92.4878 4.18791C93.0679 8.1748 93.7401 12.1473 94.3793 16.1268C94.4979 16.1339 94.6161 16.1411 94.7321 16.1504ZM90.021 28.2874C90.0777 28.2779 90.137 28.2707 90.1964 28.2615C90.3099 28.789 90.4589 29.3122 90.5301 29.8447C91.29 35.4951 92.0713 41.1404 92.7576 46.8001C92.9021 47.9829 93.2573 48.3833 94.5072 48.4141C95.8353 48.4447 96.2472 48.016 96.3821 46.7624C96.7278 43.5534 97.2013 40.3559 97.6416 37.1584C98.0486 34.1779 98.4797 31.202 98.9009 28.2237C98.979 28.233 99.0595 28.2425 99.1376 28.2494V29.9107C99.1376 35.615 99.1637 41.3194 99.1139 47.0237C99.1046 48.0891 99.4219 48.4562 100.485 48.3764C101.543 48.2963 102.62 48.2845 103.678 48.3787C104.786 48.4752 105.013 48.0301 105.009 47.0073C104.966 40.5467 104.987 34.0837 104.987 27.6204C104.987 20.3516 104.959 13.0826 105.016 5.81373C105.025 4.61432 104.682 4.22565 103.489 4.31986C102.229 4.42127 100.942 4.45644 99.6917 4.31293C98.2429 4.14786 97.8095 4.72292 97.6153 6.07764C96.8438 11.4711 95.9725 16.8479 95.092 22.2247C94.9877 22.868 95.1441 23.6716 94.3367 24.1758C93.3708 18.0614 92.3836 12.0105 91.484 5.94799C91.3019 4.72523 90.923 4.18098 89.5879 4.31755C88.2835 4.45182 86.9436 4.44001 85.6369 4.32012C84.3678 4.2046 84.1739 4.72754 84.1785 5.84428C84.2141 18.3133 84.1999 30.7825 84.2022 43.2517C84.2022 44.6652 84.226 46.079 84.1927 47.4928C84.1762 48.1312 84.3843 48.3951 85.0521 48.3715C86.1672 48.3315 87.2938 48.2632 88.397 48.3882C89.7868 48.5435 90.0684 48.0065 90.0542 46.7059C89.9807 40.5631 90.021 34.4277 90.021 28.2874ZM71.3357 25.7967C70.0858 25.7967 68.8358 25.752 67.5882 25.8134C66.769 25.8534 66.5559 25.5541 66.575 24.7742C66.6245 22.7574 66.511 20.7308 66.6245 18.7186C66.6908 17.5287 66.1724 17.4227 65.2209 17.4794C64.3496 17.5287 63.6395 17.3403 63.649 18.7304C63.7199 28.4217 63.649 38.115 63.7246 47.8062C63.7365 49.3142 63.4099 49.8608 61.8285 49.7101C60.2211 49.5568 58.5852 49.6415 56.9636 49.6888C56.1777 49.7124 55.7988 49.5899 55.8011 48.6542C55.8321 36.4399 55.8295 24.2253 55.806 12.0082C55.8034 11.1954 56.0712 10.9903 56.8499 11.0021C59.6884 11.0421 62.5291 11.0493 65.3699 10.9995C66.2601 10.9833 66.7169 11.1671 66.5869 12.1542C66.5394 12.5219 66.4045 13.0261 66.8495 13.2476C67.3537 13.4997 67.5242 12.9601 67.794 12.7057C70.5567 10.1043 77.0598 9.85941 80.0072 12.2603C81.1364 13.1793 81.6714 14.3857 81.6714 15.8346C81.6714 26.7368 81.6595 37.639 81.6928 48.5412C81.6954 49.5332 81.3092 49.6723 80.4428 49.6913C77.415 49.7594 74.3917 49.5427 71.3545 49.8726C68.2557 50.2071 66.606 48.513 66.5962 45.4146C66.5843 41.5787 66.6839 37.7404 66.5678 33.9068C66.4566 30.1769 67.6733 27.3802 71.5441 26.1338C71.4729 26.0254 71.4066 25.9099 71.3357 25.7967ZM80.3268 31.4754C80.3268 26.3245 80.301 21.1716 80.341 16.0207C80.3551 14.388 79.6213 13.3087 78.1867 12.7011C75.4289 11.5299 72.6447 11.61 69.9153 12.7883C68.599 13.356 67.884 14.4445 67.8724 15.8983C67.851 18.4244 67.884 20.95 67.8487 23.4736C67.8391 24.2322 68.0403 24.5857 68.8711 24.5434C69.9839 24.4869 71.1061 24.4818 72.2186 24.5457C73.0474 24.5927 73.2532 24.2723 73.2367 23.4996C73.1915 21.4802 73.2248 19.4587 73.2202 17.4394C73.2202 16.756 73.2176 16.0207 74.141 15.9997C75.0644 15.9784 75.1139 16.6923 75.1116 17.3898C75.107 19.0557 74.9104 20.7521 75.1542 22.3826C75.5779 25.1983 74.6429 26.8829 71.7665 27.4038C71.4304 27.4649 71.1227 27.6913 70.8031 27.8466C69.0607 28.6925 68.0994 30.0426 67.9906 32.0078C67.7277 36.6494 67.8794 41.296 67.9029 45.9401C67.9124 47.5942 68.8144 48.3738 70.4763 48.5579C71.499 48.6683 72.4933 48.5179 73.4758 48.2162C73.9065 48.0843 74.4724 47.8322 74.7897 47.9924C76.2006 48.7181 77.6755 48.1618 79.0982 48.362C80.1421 48.5107 80.3528 48.0206 80.3459 47.0782C80.3079 41.8803 80.3268 36.6781 80.3268 31.4754ZM57.0985 30.1417V44.6722C57.0985 48.3741 57.0985 48.3176 60.7748 48.3928C62.032 48.4188 62.38 48.103 62.373 46.8235C62.3163 37.0853 62.3562 27.3496 62.3186 17.6137C62.3137 16.5367 62.5126 15.936 63.7127 16.1599C65.1355 16.4261 65.5048 15.7358 65.3132 14.4799C65.2657 14.1854 65.2706 13.8697 65.3132 13.5726C65.4527 12.5855 65.0646 12.2531 64.0514 12.2957C62.1788 12.3735 60.2992 12.3781 58.4266 12.2957C57.3541 12.2485 57.0678 12.5902 57.0771 13.6458C57.1246 19.1427 57.0985 24.6422 57.0985 30.1417ZM139.979 30.257C139.979 24.4019 140.034 18.5443 139.939 12.6916C139.913 11.2308 140.386 10.9597 141.721 10.9856C145.779 11.0681 149.839 11.0799 153.894 10.981C155.353 10.9456 155.672 11.2968 155.341 12.7126C154.301 17.1824 153.468 21.6994 152.374 26.1548C151.859 28.2566 152.502 30.1558 152.869 32.109C153.896 37.5598 154.98 42.9998 156.12 48.4283C156.34 49.4767 156.117 49.7029 155.083 49.6934C150.518 49.6441 145.954 49.6343 141.39 49.7006C140.256 49.717 139.939 49.4249 139.951 48.2773C140.01 42.2713 139.979 36.263 139.979 30.257H139.979ZM146.608 34.9129L146.868 34.8918C147.377 38.009 147.9 41.1263 148.39 44.246C149.041 48.4047 149.032 48.3433 153.26 48.3951C154.628 48.4118 154.72 47.9099 154.493 46.8119C153.416 41.5717 152.36 36.329 151.347 31.077C151.072 29.6563 150.594 28.2566 150.938 26.7486C151.735 23.2567 152.483 19.753 153.213 16.2446C153.466 15.0172 154.394 13.4386 153.769 12.6397C153.056 11.7325 151.297 12.5031 150.021 12.2957C148.627 12.0695 148.326 12.7858 148.161 13.9451C147.789 16.5367 147.304 19.1099 146.863 21.6922L146.608 21.6568V16.0585C146.608 12.2911 146.605 12.3617 142.825 12.2793C141.456 12.2485 141.291 12.7552 141.295 13.9284C141.338 24.1804 141.319 34.4323 141.319 44.6865C141.319 48.381 141.321 48.3269 145.029 48.3905C146.29 48.4142 146.662 48.0722 146.636 46.8001C146.553 42.8392 146.608 38.8762 146.608 34.9129H146.608ZM39.5825 30.3042C39.5825 25.6627 39.5755 21.023 39.585 16.3789C39.592 13.4242 40.7212 11.9163 43.581 11.1012C46.0785 10.3895 48.59 10.3682 51.0618 11.2072C53.5238 12.0413 54.627 13.6317 54.6316 16.2187C54.6389 21.214 54.5891 26.2067 54.6672 31.1997C54.6861 32.4412 54.2979 32.7569 53.1237 32.6863C51.5589 32.5944 49.9821 32.6676 48.4128 32.6627C47.8799 32.6627 47.4162 32.6509 47.4373 33.4262C47.4611 34.1966 47.937 34.1684 48.4647 34.1661C50.1882 34.1635 51.914 34.2038 53.635 34.1497C54.447 34.126 54.6626 34.4064 54.6507 35.1909C54.6105 38.4708 54.66 41.7484 54.6223 45.0282C54.5986 47.0592 53.3935 48.5954 51.1849 49.3401C48.4079 50.2779 45.5908 50.2448 42.8376 49.2529C40.5033 48.4118 39.592 47.0214 39.585 44.5264C39.5755 39.788 39.5825 35.0472 39.5825 30.3042ZM40.901 30.2452C40.901 35.0425 40.9294 39.8373 40.8845 44.6347C40.8703 46.1332 41.4716 47.196 42.7997 47.778C45.572 48.9913 48.4033 49.0832 51.2063 47.8768C52.636 47.262 53.4054 46.1781 53.3582 44.5523C53.3084 42.8369 53.3487 41.1191 53.3487 39.4017C53.3487 35.2877 53.3487 35.3229 49.1869 35.403C48.2114 35.4243 47.9983 35.7565 48.0197 36.6424C48.0718 38.862 48.0363 41.0863 48.0339 43.3059C48.0339 43.9867 47.9983 44.7571 47.1105 44.7595C46.2418 44.7595 46.1567 44.015 46.1567 43.32C46.1567 39.6843 46.1851 36.0486 46.1376 32.4155C46.1257 31.4964 46.5142 31.308 47.3143 31.3291C48.8862 31.3668 50.4629 31.2751 52.0301 31.3622C53.1356 31.4235 53.3794 31.0017 53.3675 29.9766C53.3177 25.3821 53.3203 20.7899 53.3582 16.1927C53.3724 14.3834 52.513 13.2312 50.9078 12.5691C48.7133 11.6619 46.4384 11.6924 44.1894 12.2721C41.6823 12.9154 40.901 14.0229 40.8987 16.6099C40.8987 21.1598 40.9013 25.7025 40.9013 30.2454L40.901 30.2452ZM112.17 25.7967C111.024 25.7967 109.871 25.7428 108.73 25.8134C107.786 25.8722 107.393 25.6555 107.419 24.5927C107.497 21.7677 107.43 18.9379 107.452 16.108C107.471 13.6481 108.536 12.0836 110.865 11.2893C113.529 10.38 116.246 10.3118 118.934 11.2164C121.412 12.0508 122.52 13.6245 122.52 16.2259C122.527 26.9324 122.508 37.6416 122.548 48.3482C122.551 49.4131 122.255 49.6888 121.194 49.7006C118.214 49.736 115.238 49.545 112.253 49.8772C109.149 50.2212 107.471 48.5484 107.454 45.4593C107.433 41.8215 107.537 38.1833 107.426 34.5501C107.305 30.7047 108.084 27.4698 112.395 26.1528C112.318 26.0355 112.243 25.9168 112.17 25.7967ZM121.201 31.5627H121.192C121.192 26.4164 121.166 21.2707 121.206 16.1268C121.218 14.3762 120.42 13.2335 118.858 12.6161C116.19 11.5628 113.498 11.6241 110.873 12.7411C109.507 13.3205 108.74 14.3713 108.78 15.9406C108.823 17.5054 108.787 19.0698 108.787 20.632C108.787 24.6399 108.787 24.6094 112.852 24.5549C113.777 24.5408 114.092 24.3077 114.057 23.3627C113.988 21.4989 114.028 19.6305 114.042 17.7644C114.047 17.0268 113.879 16.0469 114.966 16.0207C116.197 15.9925 115.955 17.0599 115.969 17.8255C115.998 19.2372 115.801 20.6766 116.015 22.0575C116.469 24.9816 115.588 26.8829 112.501 27.4649C112.163 27.5285 111.86 27.757 111.542 27.9103C109.777 28.7703 108.86 30.191 108.846 32.1303C108.811 36.7718 108.79 41.4113 108.815 46.0531C108.825 47.5588 109.615 48.3199 111.14 48.5366C112.213 48.6873 113.256 48.5412 114.289 48.2326C114.722 48.103 115.288 47.8273 115.6 47.9875C117.009 48.7227 118.488 48.1785 119.913 48.3787C121.043 48.5343 121.234 48.0039 121.225 46.9981C121.178 41.8521 121.201 36.7087 121.201 31.5627ZM156.309 30.2146C156.309 25.5166 156.302 20.8204 156.312 16.1244C156.316 13.6245 157.32 12.0906 159.661 11.2896C162.322 10.3777 165.044 10.3023 167.731 11.2049C170.238 12.0459 171.377 13.7023 171.37 16.3388C171.354 21.3387 171.301 26.3386 171.334 31.3362C171.342 32.387 171.062 32.7477 169.985 32.6863C168.418 32.5991 166.841 32.6627 165.267 32.665C164.725 32.665 164.133 32.5166 164.162 33.4357C164.19 34.3591 164.808 34.1638 165.331 34.1661C167.005 34.1779 168.681 34.1969 170.355 34.1589C171.053 34.1425 171.335 34.3286 171.325 35.0849C171.287 38.5203 171.372 41.9558 171.278 45.3887C171.218 47.5564 169.684 48.7109 167.824 49.3589C165.104 50.3013 162.322 50.2353 159.609 49.2975C157.23 48.4729 156.307 47.0381 156.304 44.4604C156.304 39.7079 156.309 34.9599 156.309 30.2146ZM170.037 23.0752C170.037 20.7544 170.004 18.4311 170.049 16.1103C170.08 14.4327 169.289 13.3087 167.81 12.6774C165.163 11.5486 162.478 11.6218 159.827 12.6703C158.302 13.271 157.571 14.3975 157.575 16.0775C157.602 25.6129 157.599 35.1509 157.573 44.6891C157.571 46.1191 158.141 47.1629 159.403 47.7308C162.268 49.0244 165.191 49.114 168.075 47.7967C169.436 47.1747 170.111 46.0793 170.054 44.5217C169.99 42.8063 170.054 41.0909 170.032 39.3732C170.021 38.1222 170.442 36.4586 169.8 35.7259C169.052 34.8633 167.324 35.5727 166.036 35.4171C164.898 35.2805 164.699 35.8153 164.727 36.8072C164.787 38.975 164.751 41.1474 164.741 43.3177C164.739 43.9939 164.692 44.7713 163.804 44.7666C162.952 44.7595 162.836 44.015 162.836 43.3223C162.831 39.6889 162.86 36.0558 162.814 32.4224C162.805 31.5201 163.172 31.308 163.986 31.3291C165.608 31.3717 167.232 31.2939 168.853 31.3599C169.767 31.3976 170.087 31.1501 170.061 30.1887C169.992 27.8184 170.04 25.4455 170.037 23.0752ZM131.686 49.5191C131.686 51.8732 131.646 54.1868 131.705 56.5029C131.727 57.363 131.48 57.6315 130.607 57.6033C128.732 57.5422 126.852 57.528 124.98 57.6081C123.969 57.6528 123.725 57.3275 123.73 56.3476C123.77 48.6755 123.753 41.0013 123.753 33.3248C123.753 26.3574 123.779 19.3902 123.725 12.4251C123.715 11.2965 123.995 10.981 125.15 10.981C128.029 10.9833 130.905 11.0966 133.791 10.8301C136.946 10.5402 138.739 12.3499 138.743 15.5188C138.76 25.0617 138.753 34.602 138.75 44.1446C138.748 48.4211 136.738 50.1552 132.42 49.611C132.221 49.5874 132.022 49.5614 131.686 49.5191ZM125.02 34.2439V52.2665C125.02 56.4793 125.02 56.4416 129.239 56.3592C130.238 56.3381 130.422 55.9656 130.396 55.1033C130.346 53.3858 130.382 51.6704 130.382 49.9527C130.382 47.884 130.382 47.884 132.477 48.2868C135.765 48.923 137.477 47.5588 137.479 44.2907C137.484 37.2221 137.482 30.1535 137.482 23.0847C137.482 20.46 137.517 17.8327 137.465 15.2103C137.427 13.1958 136.333 12.1614 134.338 12.0813C133.462 12.0459 132.624 12.2061 131.802 12.4864C131.424 12.6161 130.886 12.8823 130.652 12.7316C129.319 11.8785 127.875 12.5337 126.511 12.3121C125.318 12.1214 124.982 12.5925 124.991 13.7919C125.048 20.6107 125.02 27.4274 125.02 34.2439ZM174.073 33.6077C174.073 28.709 174.04 23.8128 174.1 18.9142C174.114 17.8376 173.92 17.2815 172.717 17.4887C171.839 17.6373 171.417 17.3215 171.479 16.3437C171.564 14.8829 171.567 13.4147 171.533 11.954C171.517 11.2141 171.789 11.0021 172.502 11.0067C176.154 11.0326 179.807 11.0421 183.46 11.0021C184.312 10.9926 184.473 11.332 184.447 12.0741C184.402 13.4856 184.383 14.904 184.454 16.3131C184.502 17.2248 184.241 17.682 183.282 17.4935C182.066 17.2556 181.916 17.8445 181.921 18.9024C181.962 28.6476 181.919 38.393 181.973 48.1384C181.98 49.3989 181.656 49.7994 180.387 49.7029C178.874 49.5851 177.34 49.5922 175.825 49.6983C174.493 49.7925 174 49.4698 174.033 48.0019C174.142 43.2045 174.073 38.4051 174.073 33.6077ZM175.349 32.2907V44.7053C175.349 48.3859 175.352 48.3127 179.062 48.4072C180.461 48.4424 180.714 47.9875 180.707 46.701C180.653 37.0124 180.69 27.3211 180.657 17.6324C180.652 16.5863 180.806 15.9406 182.035 16.1527C183.197 16.3529 183.245 15.6297 183.185 14.7957C183.157 14.3952 183.138 13.9826 183.19 13.5844C183.311 12.6207 182.975 12.2556 181.947 12.2911C179.769 12.364 177.587 12.3121 175.406 12.3121C172.774 12.3121 172.814 12.3121 172.809 14.9582C172.807 15.8513 172.999 16.3201 173.969 16.1504C175.172 15.9406 175.383 16.5275 175.371 17.6019C175.323 22.5004 175.349 27.3968 175.349 32.2907Z" fill="#151515"/>
<path d="M30.8855 29.2016C30.6131 31.1077 30.3314 33.0113 30.0735 34.9201C29.5313 38.9208 28.9515 42.9195 28.4921 46.9295C28.3546 48.1079 27.9051 48.4164 26.7663 48.4C25.6631 48.3833 25.0239 48.2704 24.8653 46.9485C24.1859 41.237 23.4 35.5372 22.6445 29.8329C22.5738 29.2981 22.4528 28.7703 22.1312 28.2592V41.6046C22.1312 43.473 22.0788 45.344 22.1524 47.2078C22.1903 48.1667 21.8588 48.4634 20.9426 48.3692C19.4487 48.2162 17.5457 48.9938 16.5629 48.0278C15.7156 47.1934 16.3264 45.3345 16.3238 43.9349C16.3122 31.2608 16.3357 18.5843 16.2885 5.91024C16.2836 4.64974 16.6127 4.21845 17.8887 4.31985C19.2501 4.42819 20.6326 4.41638 21.9937 4.32242C23.0495 4.24925 23.3858 4.6826 23.5326 5.6489C24.361 11.087 25.2393 16.5157 26.1011 21.9466C26.132 22.1446 26.1248 22.3589 26.1957 22.5427C26.333 22.8962 26.1271 23.5278 26.6077 23.5678C27.2917 23.6243 27.1003 22.9106 27.1594 22.5381C28.0423 17.1095 28.9371 11.6831 29.7137 6.24013C29.9218 4.76988 30.4073 4.12911 31.9768 4.31523C33.2268 4.46362 34.5146 4.41407 35.7762 4.32447C36.8605 4.24925 37.1376 4.64512 37.1303 5.68895C37.0904 13.2122 37.1092 20.738 37.1092 28.2615C37.1092 34.4723 37.0759 40.6832 37.1376 46.8943C37.1494 48.1148 36.7754 48.487 35.6013 48.3787C34.5901 48.2877 33.5726 48.2885 32.5615 48.3813C31.456 48.4801 31.2262 48.0347 31.2334 47.0122C31.2783 41.3571 31.2549 35.7 31.25 30.0449C31.25 29.7718 31.2097 29.5007 31.1886 29.2275C31.089 29.218 30.9874 29.2108 30.8855 29.2016ZM90.0238 28.2874C90.0238 34.4251 89.9836 40.5631 90.0548 46.701C90.069 48.0018 89.7873 48.5392 88.3976 48.3833C87.2967 48.2586 86.1675 48.3294 85.0527 48.3669C84.3849 48.3905 84.1767 48.1266 84.1933 47.4881C84.2263 46.0744 84.2028 44.6606 84.2028 43.2471C84.2028 30.7779 84.2144 18.3086 84.1791 5.83964C84.1765 4.7229 84.3707 4.19971 85.6372 4.31523C86.9441 4.43538 88.2841 4.44719 89.5885 4.31266C90.9212 4.17609 91.3024 4.72034 91.4845 5.94336C92.3842 12.0058 93.3713 18.0565 94.3373 24.1709C95.1469 23.669 94.9883 22.8634 95.0925 22.22C95.9731 16.8433 96.8465 11.4662 97.6161 6.073C97.8124 4.72265 98.2458 4.14785 99.6923 4.31523C100.942 4.4613 102.23 4.42357 103.489 4.32216C104.683 4.22563 105.023 4.61688 105.016 5.81628C104.962 13.0851 104.988 20.3539 104.988 27.6227C104.988 34.0837 104.967 40.5466 105.009 47.0099C105.016 48.0324 104.787 48.4778 103.679 48.381C102.623 48.2868 101.546 48.2986 100.485 48.3787C99.4225 48.4588 99.1052 48.0912 99.1145 47.0263C99.1643 41.3219 99.1382 35.6176 99.1382 29.9132V28.252C99.0592 28.2445 98.9802 28.2359 98.9014 28.226C98.4802 31.2043 98.0515 34.1802 97.6422 37.1607C97.2016 40.3582 96.7283 43.5557 96.3827 46.7647C96.2478 48.0183 95.8333 48.447 94.5075 48.4164C93.2578 48.3856 92.9003 47.9851 92.7582 46.8024C92.0718 41.1451 91.2906 35.4972 90.5307 29.847C90.4595 29.3122 90.3104 28.7916 90.1967 28.2638C90.1399 28.2707 90.0806 28.2802 90.0238 28.2874ZM80.3297 31.4751C80.3297 36.6778 80.3108 41.8801 80.3487 47.0805C80.3557 48.0229 80.145 48.5107 79.1011 48.3646C77.6784 48.1643 76.2035 48.7181 74.7926 47.9946C74.4753 47.8345 73.9071 48.0866 73.4787 48.2185C72.4962 48.5202 71.5042 48.6685 70.4792 48.56C68.815 48.3764 67.9153 47.5965 67.906 45.9424C67.8823 41.2983 67.7306 36.6542 67.9937 32.0101C68.1046 30.0475 69.0636 28.6974 70.806 27.8489C71.1232 27.6936 71.4333 27.4674 71.7693 27.4061C74.6432 26.8854 75.5785 25.2008 75.157 22.3849C74.9133 20.7547 75.1073 19.058 75.1145 17.3921C75.1171 16.6946 75.067 15.9807 74.1439 16.002C73.2205 16.0233 73.2231 16.7583 73.2231 17.4417C73.2254 19.4608 73.1947 21.4825 73.2396 23.5018C73.2561 24.2746 73.0502 24.5929 72.2215 24.548C71.109 24.4843 69.9891 24.4889 68.874 24.5454C68.0432 24.588 67.842 24.2368 67.8516 23.4759C67.8869 20.9523 67.8516 18.4265 67.875 15.9006C67.8869 14.4468 68.6042 13.3559 69.9181 12.7904C72.6453 11.6123 75.4317 11.5325 78.1896 12.7031C79.6219 13.3113 80.358 14.3903 80.3438 16.0233C80.3013 21.1716 80.3297 26.3243 80.3297 31.4751ZM75.1122 37.8392C75.1122 36.0722 75.1096 34.305 75.1122 32.5379C75.1122 31.8404 75.0624 31.1501 74.1201 31.176C73.2821 31.2017 73.2251 31.8427 73.2251 32.4815C73.2251 36.0653 73.2277 39.6512 73.2231 43.233C73.2231 43.8994 73.3675 44.524 74.1485 44.5358C75.0552 44.55 75.1168 43.836 75.1145 43.1362C75.1073 41.3712 75.1119 39.6042 75.1119 37.8392H75.1122ZM57.1014 30.1417C57.1014 24.6422 57.1272 19.1427 57.0777 13.6435C57.0681 12.5878 57.3547 12.2461 58.4272 12.2931C60.2998 12.3758 62.1793 12.3712 64.0519 12.2931C65.0651 12.2508 65.4533 12.5832 65.3138 13.5703C65.2709 13.8673 65.2663 14.1805 65.3138 14.4776C65.5054 15.7334 65.136 16.4235 63.7133 16.1576C62.5131 15.9314 62.3142 16.5344 62.3189 17.6114C62.3568 27.347 62.3166 37.0853 62.3733 46.8212C62.3805 48.1007 62.0326 48.4164 60.7754 48.3905C57.1014 48.315 57.0991 48.3715 57.0991 44.6701C57.1014 39.8281 57.1014 34.9837 57.1014 30.1417ZM146.611 34.9129C146.611 38.8761 146.558 42.8392 146.641 46.8001C146.67 48.0724 146.296 48.4141 145.034 48.3905C141.327 48.3268 141.324 48.381 141.324 44.6865C141.324 34.4323 141.343 24.1804 141.301 13.9287C141.293 12.7552 141.459 12.2508 142.83 12.2793C146.61 12.3614 146.613 12.2911 146.613 16.0585V21.6568L146.869 21.6922C147.309 19.1096 147.794 16.5367 148.166 13.9451C148.332 12.7858 148.632 12.0695 150.027 12.2957C151.303 12.5031 153.061 11.7301 153.774 12.6397C154.399 13.4384 153.471 15.0169 153.218 16.2446C152.489 19.7532 151.741 23.2567 150.943 26.7486C150.597 28.2566 151.078 29.6586 151.352 31.0769C152.365 36.329 153.421 41.5717 154.499 46.8119C154.726 47.9099 154.634 48.4118 153.265 48.3951C149.037 48.3458 149.049 48.4046 148.395 44.246C147.905 41.1263 147.382 38.0113 146.873 34.8918C146.783 34.8988 146.698 34.9059 146.61 34.9129H146.611ZM40.9042 30.2454C40.9042 25.7025 40.9016 21.1575 40.9042 16.6122C40.9065 14.0252 41.6875 12.9177 44.1946 12.2744C46.4438 11.6947 48.7188 11.6641 50.913 12.5714C52.5158 13.2335 53.3776 14.3857 53.3634 16.1953C53.3255 20.7898 53.3232 25.3844 53.3727 29.9789C53.3846 31.004 53.1408 31.4258 52.0353 31.3645C50.4681 31.2749 48.8914 31.367 47.3195 31.3316C46.5194 31.3126 46.1312 31.501 46.1431 32.4175C46.1903 36.0509 46.1619 39.6866 46.1619 43.3223C46.1619 44.0173 46.247 44.762 47.116 44.762C48.0038 44.7594 48.0394 43.9893 48.0394 43.3082C48.0415 41.0886 48.0771 38.8643 48.025 36.6447C48.0038 35.759 48.2192 35.4243 49.1921 35.4055C53.3562 35.3252 53.3539 35.29 53.3539 39.404C53.3539 41.1214 53.3136 42.8392 53.3634 44.5546C53.4106 46.1804 52.6389 47.2643 51.2115 47.8791C48.4062 49.0857 45.5772 48.9938 42.8049 47.7803C41.477 47.1983 40.8781 46.1355 40.8897 44.637C40.9325 39.8399 40.9039 35.0448 40.9039 30.2452L40.9042 30.2454ZM48.0368 21.9538V17.2625C48.0368 16.6571 47.895 16.0939 47.1892 16.0492C46.3915 15.9997 46.1665 16.5722 46.1665 17.2484C46.1619 20.3257 46.1738 23.4028 46.1547 26.4775C46.1524 27.1635 46.3608 27.4957 47.1018 27.5026C47.8498 27.5098 48.0605 27.1776 48.0464 26.4896C48.018 24.9816 48.0368 23.4664 48.0368 21.9538ZM121.204 31.5624C121.204 36.7084 121.18 41.8518 121.226 46.9981C121.235 48.0042 121.043 48.5343 119.914 48.3787C118.487 48.1785 117.007 48.7227 115.601 47.9875C115.288 47.8273 114.722 48.103 114.289 48.2326C113.255 48.5412 112.213 48.6873 111.141 48.5366C109.614 48.3199 108.823 47.5587 108.816 46.0531C108.788 41.4115 108.811 36.7721 108.847 32.1303C108.861 30.191 109.777 28.7703 111.543 27.9103C111.86 27.757 112.166 27.5285 112.502 27.4649C115.591 26.8829 116.472 24.9816 116.015 22.0575C115.802 20.6789 115.998 19.2372 115.97 17.8257C115.956 17.0599 116.197 15.9927 114.966 16.021C113.88 16.0466 114.048 17.0268 114.043 17.7644C114.029 19.6307 113.989 21.4989 114.057 23.3627C114.095 24.3054 113.778 24.5411 112.852 24.5549C108.788 24.6093 108.788 24.6396 108.788 20.632C108.788 19.0675 108.823 17.5028 108.78 15.9406C108.738 14.3715 109.507 13.3205 110.873 12.7411C113.498 11.6244 116.19 11.5627 118.858 12.6161C120.421 13.2335 121.218 14.3762 121.207 16.1267C121.166 21.2727 121.192 26.4187 121.192 31.5624H121.204ZM115.975 37.8747C115.975 36.0581 115.982 34.239 115.972 32.4247C115.968 31.7745 115.826 31.1617 114.999 31.1783C114.187 31.1948 114.045 31.8004 114.043 32.453C114.038 36.0368 114.043 39.6206 114.041 43.2045C114.041 43.8643 114.204 44.4958 114.959 44.5358C115.861 44.5851 115.975 43.8735 115.977 43.1739C115.982 41.4067 115.977 39.6396 115.975 37.8747H115.975ZM170.04 23.0754C170.042 25.4457 169.993 27.8184 170.066 30.1887C170.094 31.1501 169.773 31.3976 168.859 31.3598C167.237 31.2939 165.613 31.3717 163.992 31.329C163.177 31.308 162.81 31.52 162.82 32.4227C162.865 36.0558 162.836 39.6889 162.841 43.3223C162.841 44.0149 162.957 44.7594 163.809 44.7666C164.695 44.7713 164.744 43.9939 164.747 43.3177C164.756 41.1474 164.794 38.975 164.732 36.8072C164.702 35.8153 164.901 35.2828 166.042 35.4171C167.33 35.5703 169.055 34.8636 169.806 35.7259C170.447 36.4586 170.026 38.1222 170.038 39.3732C170.059 41.0909 169.993 42.8063 170.059 44.5217C170.116 46.0767 169.441 47.1747 168.08 47.7967C165.196 49.1137 162.273 49.0244 159.408 47.7307C158.147 47.1629 157.576 46.119 157.578 44.6888C157.604 35.1509 157.607 25.6154 157.581 16.0772C157.576 14.3975 158.31 13.2735 159.832 12.6705C162.484 11.6241 165.168 11.5512 167.815 12.6774C169.294 13.309 170.085 14.4326 170.054 16.1103C170.007 18.4311 170.04 20.7547 170.04 23.0754ZM164.751 21.9515C164.751 20.4954 164.758 19.0393 164.747 17.5829C164.742 16.8738 164.789 16.0302 163.769 16.0538C162.888 16.0726 162.841 16.8243 162.841 17.5053C162.836 20.4695 162.853 23.431 162.829 26.3931C162.822 27.1234 163.009 27.5072 163.84 27.5121C164.763 27.5167 164.758 26.9607 164.754 26.3199C164.744 24.8638 164.751 23.4076 164.751 21.9515ZM125.023 34.2439C125.023 27.4274 125.054 20.6106 124.994 13.7942C124.982 12.5927 125.321 12.1237 126.514 12.3144C127.878 12.5337 129.324 11.8785 130.655 12.7339C130.891 12.8846 131.426 12.6184 131.805 12.4887C132.629 12.2084 133.465 12.0482 134.341 12.0836C136.339 12.1614 137.432 13.1981 137.468 15.2126C137.518 17.8375 137.485 20.4625 137.485 23.087C137.485 30.1558 137.487 37.2244 137.482 44.293C137.48 47.5636 135.766 48.9253 132.48 48.2891C130.385 47.8861 130.385 47.8861 130.385 49.9552C130.385 51.6727 130.349 53.3881 130.399 55.1056C130.425 55.9682 130.24 56.3404 129.241 56.3615C125.023 56.4441 125.023 56.4816 125.023 52.2688V34.2439ZM130.385 30.1581V38.7937C130.385 40.3087 130.382 41.8238 130.39 43.3387C130.394 43.9348 130.541 44.5191 131.246 44.5546C132.037 44.5946 132.241 44.0008 132.264 43.3318C132.274 43.0797 132.267 42.825 132.267 42.5753C132.267 34.3946 132.269 26.2139 132.264 18.0332C132.264 17.6301 132.283 17.2178 132.203 16.8291C132.101 16.346 131.784 16.002 131.242 16.042C130.778 16.0775 130.52 16.4048 130.453 16.8361C130.394 17.2319 130.39 17.6396 130.39 18.0427C130.382 22.0786 130.385 26.1196 130.385 30.1581ZM175.352 32.2905C175.352 27.3966 175.324 22.5004 175.376 17.6065C175.388 16.5321 175.177 15.9455 173.975 16.1552C173.004 16.3247 172.812 15.8582 172.815 14.9628C172.819 12.3167 172.777 12.3167 175.412 12.3167C177.592 12.3167 179.775 12.3686 181.953 12.2957C182.982 12.2603 183.316 12.6256 183.195 13.5893C183.146 13.9872 183.162 14.3975 183.191 14.8003C183.247 15.6346 183.203 16.3578 182.04 16.1576C180.812 15.9455 180.658 16.5912 180.662 17.6373C180.698 27.326 180.658 37.0172 180.712 46.7059C180.719 47.9921 180.466 48.4447 179.067 48.4118C175.357 48.3173 175.355 48.3882 175.355 44.7099C175.352 40.5679 175.352 36.4304 175.352 32.2905Z" fill="#DEDEDE"/>
<path d="M75.106 37.8393C75.106 39.6043 75.1011 41.3713 75.106 43.1386C75.1083 43.8384 75.0493 44.5523 74.14 44.5382C73.3588 44.5264 73.212 43.9021 73.2143 43.2351C73.2192 39.6512 73.2169 36.0674 73.2169 32.4836C73.2169 31.8451 73.2711 31.2043 74.1117 31.1784C75.0539 31.1502 75.106 31.8428 75.1037 32.5403C75.1037 34.305 75.106 36.0723 75.106 37.8393ZM48.0307 21.9539C48.0307 23.4665 48.0118 24.9817 48.0402 26.4943C48.0544 27.1823 47.8437 27.5145 47.0956 27.5075C46.3546 27.5003 46.1439 27.1681 46.1485 26.4824C46.1699 23.4054 46.1557 20.3281 46.1604 17.2533C46.1604 16.5768 46.3853 16.0043 47.1831 16.0539C47.8885 16.0986 48.033 16.6595 48.0307 17.2674V21.9539ZM115.971 37.8747C115.971 39.6397 115.976 41.4067 115.968 43.1714C115.966 43.8712 115.852 44.5852 114.951 44.5333C114.198 44.491 114.032 43.862 114.032 43.2022C114.035 39.6184 114.03 36.0371 114.035 32.4507C114.037 31.7981 114.181 31.1928 114.991 31.1761C115.819 31.1597 115.959 31.7722 115.964 32.4225C115.976 34.239 115.969 36.0559 115.971 37.8747ZM164.745 21.9516C164.745 23.4077 164.738 24.8638 164.748 26.3199C164.752 26.9607 164.757 27.5168 163.834 27.5122C163.003 27.5075 162.816 27.1209 162.823 26.3928C162.847 23.431 162.83 20.4669 162.835 17.5051C162.835 16.8243 162.882 16.0752 163.763 16.0539C164.783 16.0303 164.736 16.8739 164.74 17.5829C164.752 19.0393 164.745 20.4954 164.745 21.9516ZM130.379 30.1582C130.379 26.1197 130.376 22.0786 130.381 18.0401C130.381 17.6371 130.386 17.2297 130.445 16.8336C130.511 16.4002 130.769 16.0726 131.233 16.0398C131.775 15.9997 132.093 16.346 132.194 16.8266C132.275 17.2156 132.256 17.6276 132.256 18.0306C132.261 26.2116 132.258 34.3923 132.258 42.5733C132.258 42.8228 132.265 43.0772 132.256 43.3293C132.232 43.9963 132.029 44.5898 131.238 44.5523C130.532 44.5169 130.386 43.9326 130.381 43.3365C130.374 41.8213 130.376 40.3064 130.376 38.7912C130.379 35.9144 130.379 33.0376 130.379 30.1582Z" fill="#151515"/>
</g>
</svg>
