<svg width="116" height="116" viewBox="0 0 116 116" fill="none" xmlns="http://www.w3.org/2000/svg">
<circle cx="58" cy="58" r="57.5" fill="white" stroke="#B0B0B0"/>
<circle cx="57.9986" cy="58" r="39.0182" fill="#D6121E"/>
<path fill-rule="evenodd" clip-rule="evenodd" d="M97.0203 56.7609V57.13C96.9945 62.6934 95.8045 67.9817 93.6812 72.7637H22.3239C20.1772 67.9288 18.9844 62.5765 18.9844 56.9455C18.9844 51.7208 20.0113 46.736 21.8742 42.1819H94.1309C95.9719 46.6824 96.9964 51.6034 97.0203 56.7609Z" fill="white"/>
<g clip-path="url(#clip0_454_1073)">
<path d="M91.7447 52.164C91.752 52.2708 91.7266 52.3774 91.6719 52.4695C91.6172 52.5615 91.5357 52.6348 91.4383 52.6794C91.3409 52.724 91.2322 52.7379 91.1267 52.7192C91.0213 52.7005 90.924 52.6502 90.8478 52.5748C90.7717 52.4995 90.7203 52.4027 90.7005 52.2975C90.6807 52.1922 90.6934 52.0834 90.737 51.9855C90.7806 51.8877 90.8529 51.8054 90.9444 51.7497C91.0359 51.694 91.1421 51.6674 91.2491 51.6736C91.3139 51.6729 91.3783 51.6851 91.4384 51.7094C91.4985 51.7337 91.5531 51.7697 91.5992 51.8154C91.6453 51.861 91.6819 51.9153 91.7069 51.9751C91.7319 52.0349 91.7447 52.0991 91.7447 52.164ZM90.8694 52.164C90.8631 52.2172 90.8682 52.2712 90.8842 52.3224C90.9003 52.3735 90.927 52.4207 90.9627 52.4608C90.9983 52.5009 91.042 52.533 91.0909 52.5549C91.1398 52.5769 91.1928 52.5883 91.2464 52.5883C91.3001 52.5883 91.3531 52.5769 91.402 52.5549C91.4509 52.533 91.4946 52.5009 91.5302 52.4608C91.5659 52.4207 91.5926 52.3735 91.6086 52.3224C91.6247 52.2712 91.6298 52.2172 91.6234 52.164C91.6298 52.1107 91.6247 52.0567 91.6086 52.0056C91.5926 51.9544 91.5659 51.9072 91.5302 51.8671C91.4946 51.8271 91.4509 51.795 91.402 51.773C91.3531 51.751 91.3001 51.7397 91.2464 51.7397C91.1928 51.7397 91.1398 51.751 91.0909 51.773C91.042 51.795 90.9983 51.8271 90.9627 51.8671C90.927 51.9072 90.9003 51.9544 90.8842 52.0056C90.8682 52.0567 90.8631 52.1107 90.8694 52.164ZM91.17 52.4171H91.054V51.9267C91.1172 51.9227 91.1806 51.9227 91.2438 51.9267C91.3017 51.9197 91.36 51.9348 91.4073 51.9689L91.46 52.0691C91.4592 52.097 91.4488 52.1238 91.4305 52.1449C91.4123 52.166 91.3873 52.1802 91.3598 52.1851V52.2009C91.4073 52.2009 91.4284 52.2536 91.4442 52.3169C91.451 52.3588 91.4634 52.3996 91.4811 52.4382H91.3598C91.3447 52.3986 91.3323 52.3581 91.3229 52.3169C91.3217 52.3052 91.318 52.294 91.3122 52.2838C91.3064 52.2737 91.2985 52.2649 91.2891 52.2579C91.2796 52.251 91.2689 52.2461 91.2575 52.2435C91.246 52.241 91.2342 52.2408 91.2227 52.2431H91.17V52.4171ZM91.17 52.1429H91.228C91.286 52.1429 91.3387 52.1429 91.3387 52.0691C91.3387 51.9952 91.3071 51.9952 91.2333 51.9952H91.17V52.1429Z" fill="#D6121E"/>
<path fill-rule="evenodd" clip-rule="evenodd" d="M49.9899 55.6917V61.5347C49.9899 61.9121 50.1367 62.3712 50.6932 62.3712H51.7328C51.7328 62.9058 51.7328 63.6291 51.7328 64.17H48.0636C46.1434 64.17 44.9508 62.497 44.9508 60.2265V55.9182C44.957 53.8992 46.1434 51.6727 47.5988 51.6727H51.7573V53.264C49.9227 53.264 49.9899 53.2954 49.9899 55.6917ZM55.7323 59.151L56.1604 56.7044L56.6007 59.1321L55.7323 59.151ZM52.9192 64.1826L55.2981 51.6727H59.7929L62.019 64.17H57.3835L56.8942 60.9498H55.3409L54.7294 64.17L52.9192 64.1826ZM37.5267 59.1824L37.9487 56.7547L38.4257 59.1824H37.5267ZM39.2757 64.17L38.7254 60.9498H37.1476L36.4749 64.17H34.677L37.1292 51.6727H41.673L43.9785 64.17H39.2757ZM89.6362 51.6727V53.6602H87.8015V64.17H83.3984V53.6602H81.3375V51.6727H89.6362ZM63.8903 64.17L63.8658 51.6727H68.3912V62.3649H70.0852V64.1952L63.8903 64.17ZM27.418 64.17V51.6727H31.9984V62.4656H33.2215V64.17H27.418ZM75.216 64.3273C74.1275 64.2078 71.4183 63.8493 71.4183 62.3083L71.3878 51.6727H75.9315V61.6165C75.9315 62.3146 76.6348 62.4341 77.3748 62.3712C77.4788 62.3825 77.584 62.3716 77.6837 62.3391C77.7834 62.3066 77.8755 62.2532 77.9542 62.1823C78.0329 62.1114 78.0964 62.0246 78.1409 61.9272C78.1854 61.8298 78.2098 61.724 78.2126 61.6165V51.6727H79.8515V62.4027C79.827 64.4279 76.3902 64.3021 75.2344 64.3273H75.216Z" fill="#D6121E"/>
</g>
<path d="M44.2891 88.3661V79.2512H47.3593C47.8103 79.2512 48.2073 79.3724 48.5504 79.6148C48.8973 79.8531 49.1594 80.1736 49.3367 80.5762C49.5179 80.9747 49.6085 81.4205 49.6085 81.9136C49.6085 82.4148 49.516 82.8729 49.331 83.2879C49.1498 83.7029 48.8838 84.0357 48.533 84.2863C48.1861 84.5328 47.7872 84.6561 47.3362 84.6561H45.9138V88.3661H44.2891ZM45.9138 83.3064H46.7291C47.1338 83.3064 47.4383 83.1893 47.6426 82.9551C47.8469 82.7209 47.9491 82.384 47.9491 81.9444C47.9491 81.5089 47.8469 81.1761 47.6426 80.946C47.4383 80.7159 47.1338 80.6009 46.7291 80.6009H45.9138V83.3064Z" fill="white"/>
<path d="M50.6724 85.5127V82.2094C50.6724 81.6506 50.7398 81.1678 50.8747 80.7611C51.0097 80.3502 51.2024 80.0257 51.4529 79.7874C51.7074 79.5449 51.9984 79.3683 52.326 79.2573C52.6575 79.1464 53.0334 79.0909 53.4535 79.0909C53.8814 79.0909 54.2572 79.1464 54.581 79.2573C54.9086 79.3642 55.1958 79.5367 55.4425 79.775C55.6931 80.0133 55.8819 80.3379 56.0092 80.7488C56.1402 81.1555 56.2057 81.6424 56.2057 82.2094V85.5127C56.2057 86.0797 56.1402 86.5666 56.0092 86.9733C55.8819 87.376 55.6931 87.6923 55.4425 87.9224C55.192 88.1525 54.9048 88.3189 54.581 88.4216C54.2572 88.5284 53.8814 88.5819 53.4535 88.5819C51.5994 88.5819 50.6724 87.5588 50.6724 85.5127ZM52.3318 85.7284C52.3318 86.7063 52.7057 87.1952 53.4535 87.1952C53.8043 87.1952 54.0741 87.0699 54.263 86.8193C54.4519 86.5686 54.5463 86.205 54.5463 85.7284V82.0307C54.5463 81.5417 54.4499 81.1617 54.2572 80.8905C54.0683 80.6152 53.8004 80.4776 53.4535 80.4776C52.7057 80.4776 52.3318 80.9871 52.3318 82.006V85.7284Z" fill="white"/>
<path d="M57.3217 88.3661V79.2512H58.9464V83.2016L60.9123 79.2512H62.7452L60.5827 83.2016L62.8203 88.3661H61.0048L59.5882 84.73L58.9464 85.6298V88.3661H57.3217Z" fill="white"/>
<path d="M63.6703 88.3661V79.2512H65.295V88.3661H63.6703Z" fill="white"/>
<path d="M66.4803 88.3661V79.2512H69.4812C69.8435 79.2512 70.1635 79.3128 70.441 79.4361C70.7185 79.5552 70.9382 79.7216 71.1001 79.9353C71.262 80.1448 71.3835 80.379 71.4644 80.6378C71.5454 80.8967 71.5858 81.1761 71.5858 81.476C71.5858 81.9362 71.4779 82.3655 71.262 82.764C71.05 83.1585 70.7744 83.3927 70.4352 83.4666C70.8631 83.6515 71.1811 83.9186 71.3892 84.2678C71.6012 84.617 71.7072 85.0834 71.7072 85.6668C71.7072 86.4844 71.5396 87.1397 71.2042 87.6328C70.8727 88.1217 70.389 88.3661 69.7529 88.3661H66.4803ZM68.1051 87.0658H69.1458C69.4542 87.0658 69.6816 86.9569 69.8281 86.7391C69.9746 86.5173 70.0478 86.1557 70.0478 85.6545C70.0478 85.2025 69.9707 84.8553 69.8165 84.6129C69.6662 84.3705 69.4426 84.2493 69.1458 84.2493H68.1051V87.0658ZM68.1051 82.9489H68.955C69.6296 82.9489 69.9669 82.5381 69.9669 81.7163C69.9669 81.3178 69.8917 81.024 69.7414 80.8351C69.5949 80.6461 69.3424 80.5516 68.9839 80.5516H68.1051V82.9489Z" fill="white"/>
<circle cx="57.9986" cy="58" r="38.5182" stroke="#B0B0B0"/>
<path d="M103.441 64.9428L103.363 65.7844L100.598 65.5278L100.718 64.2373L102.236 64.3782L102.679 59.609L101.16 59.4681L101.28 58.1776L104.045 58.4342L103.977 59.1636C104.539 59.676 105.428 59.9887 106.645 60.1016L110.599 60.4686L110.126 65.5633L103.441 64.9428ZM103.846 60.5775L103.561 63.6523L109.022 64.1592L109.256 61.6455L106.502 61.39C105.324 61.2806 104.438 61.0098 103.846 60.5775Z" fill="#717171"/>
<path d="M100.641 74.328C100.107 73.3092 100.015 72.2378 100.366 71.1137C100.717 69.9896 101.403 69.1568 102.424 68.6152C103.45 68.0834 104.525 67.9928 105.649 68.3436C106.773 68.6944 107.602 69.3792 108.136 70.398C108.676 71.4265 108.77 72.5028 108.419 73.6269C108.068 74.7509 107.38 75.5789 106.354 76.1108C105.333 76.6523 104.26 76.7477 103.136 76.397C102.012 76.0462 101.18 75.3565 100.641 74.328ZM103.009 69.7838C102.317 70.1524 101.851 70.7249 101.608 71.5014C101.366 72.2779 101.425 73.0106 101.787 73.6995C102.153 74.3981 102.735 74.872 103.534 75.1213C104.333 75.3705 105.078 75.3109 105.769 74.9423C106.465 74.5834 106.934 74.0157 107.177 73.2392C107.419 72.4627 107.357 71.7251 106.991 71.0265C106.63 70.3376 106.05 69.8685 105.251 69.6193C104.452 69.37 103.705 69.4249 103.009 69.7838Z" fill="#717171"/>
<path d="M97.1724 79.5485C97.743 78.532 98.5674 77.8863 99.6455 77.6115C100.73 77.3406 101.793 77.497 102.833 78.081C103.874 78.6649 104.557 79.4886 104.884 80.5521C105.218 81.6194 105.1 82.6613 104.529 83.6778C104.186 84.2891 103.718 84.7667 103.125 85.1108C102.529 85.4613 101.889 85.6353 101.206 85.6329L101.16 84.3379C101.613 84.3549 102.038 84.2466 102.435 84.0129C102.836 83.7895 103.156 83.4655 103.394 83.0408C103.799 82.3202 103.887 81.6001 103.661 80.8805C103.43 80.1674 102.947 79.6041 102.21 79.1908C101.474 78.7775 100.741 78.6582 100.013 78.8329C99.2802 79.0141 98.7118 79.465 98.3073 80.1856C98.069 80.6102 97.9536 81.0531 97.9613 81.5143C97.9757 81.9793 98.1098 82.3972 98.3635 82.7681L97.2443 83.409C96.883 82.8339 96.6932 82.1986 96.675 81.503C96.6599 80.8177 96.8257 80.1662 97.1724 79.5485Z" fill="#717171"/>
<path d="M94.8307 83.1252L95.801 83.9515C95.3951 84.3169 95.2321 84.706 95.3121 85.1189C95.3869 85.5381 95.7782 86.0491 96.4861 86.6519L100.193 89.8091L96.4522 94.2021L90.0446 88.7452L90.9619 87.6681L96.3626 92.2674L98.2691 90.0287L95.587 87.7447C95.0256 87.2665 94.6058 86.8013 94.3277 86.349C94.0443 85.903 93.9007 85.4844 93.8968 85.0933C93.8991 84.7074 93.9784 84.3547 94.1346 84.0353C94.2916 83.7273 94.5236 83.4239 94.8307 83.1252Z" fill="#717171"/>
<path d="M93.8555 95.9639L93.0677 96.6649L87.4591 90.363L88.2468 89.6619L93.8555 95.9639Z" fill="#717171"/>
<path d="M81.5309 97.1728L80.8279 97.6421L79.2862 95.3327L80.3641 94.6131L81.2108 95.8813L85.1943 93.2219L84.3476 91.9536L85.4255 91.234L86.9673 93.5433L86.358 93.9501C86.3139 94.7093 86.6309 95.5969 87.3091 96.6128L89.5143 99.9159L85.2589 102.757L81.5309 97.1728ZM85.177 94.7385L82.6088 96.4531L85.6544 101.015L87.754 99.6133L86.2185 97.3135C85.5614 96.3291 85.2142 95.4708 85.177 94.7385Z" fill="#717171"/>
<path d="M69.3705 100.351L70.852 99.7759L75.0501 102.387L73.6199 98.7016L74.9406 98.189L76.3709 101.874L77.7085 97.1148L79.2015 96.5354L77.7536 101.725L82.1391 104.445L80.646 105.024L76.6064 102.481L77.993 106.054L76.6723 106.566L75.2856 102.994L74.0193 107.596L72.5378 108.171L73.9291 103.21L69.3705 100.351Z" fill="#717171"/>
<path d="M66.9709 101.86L63.1825 102.523L62.954 101.217L68.1479 100.308L69.6016 108.618L64.4688 109.516L64.2404 108.21L67.9677 107.558L67.5898 105.398L64.1679 105.996L63.9416 104.702L67.3634 104.104L66.9709 101.86Z" fill="#717171"/>
<path d="M57.2645 110.766L55.8917 110.776L55.8265 102.34L57.1994 102.33L57.2276 105.981L60.809 105.954L60.7808 102.302L62.1536 102.291L62.2188 110.727L60.8459 110.738L60.8192 107.279L57.2378 107.307L57.2645 110.766Z" fill="#717171"/>
<path d="M46.8056 108.763L45.4561 108.511L47.005 100.218L48.3546 100.47L47.6841 104.06L51.2047 104.717L51.8752 101.128L53.2247 101.38L51.6758 109.673L50.3262 109.421L50.9613 106.021L47.4407 105.363L46.8056 108.763Z" fill="#717171"/>
<path d="M37.3311 106.351L40.3541 98.475L41.648 98.9717L40.5468 101.841L41.7957 102.32L44.7985 100.181L46.2612 100.742L43.114 102.955C43.5711 103.311 43.885 103.772 44.0555 104.336C44.2157 104.906 44.1922 105.46 43.9849 106C43.7143 106.706 43.2416 107.208 42.5669 107.509C41.8818 107.814 41.1867 107.831 40.4816 107.56L37.3311 106.351ZM41.9585 103.712L40.102 103L39.0915 105.633L40.948 106.345C41.2931 106.478 41.6346 106.462 41.9725 106.299C42.3104 106.137 42.5499 105.871 42.691 105.504C42.832 105.136 42.8315 104.779 42.6893 104.432C42.5472 104.085 42.3036 103.845 41.9585 103.712Z" fill="#717171"/>
<path d="M21.2615 95.034C20.7648 94.5264 20.5405 93.918 20.5884 93.2087C20.6313 92.4943 20.9341 91.8617 21.4969 91.3111C22.054 90.766 22.693 90.477 23.4139 90.4441C24.124 90.4116 24.7275 90.6492 25.2242 91.1569L26.3003 92.2568L28.3678 90.2339L29.2332 91.1184L23.2031 97.0184L21.2615 95.034ZM24.2938 92.0672C24.0379 91.8057 23.7296 91.6858 23.3688 91.7077C23.0022 91.7351 22.6667 91.8978 22.3624 92.1956C22.058 92.4934 21.8909 92.8224 21.8612 93.1827C21.8258 93.5486 21.936 93.8622 22.1919 94.1238L23.268 95.2236L25.37 93.167L24.2938 92.0672Z" fill="#717171"/>
<path d="M18.9168 80.6997C20.0442 80.9287 20.9329 81.534 21.5832 82.5158C22.2334 83.4975 22.4461 84.5552 22.2214 85.689C21.986 86.8206 21.3774 87.7116 20.3957 88.3618C19.4139 89.012 18.3594 89.2226 17.2321 88.9936C16.094 88.7625 15.1999 88.156 14.5496 87.1743C13.8994 86.1926 13.692 85.1359 13.9275 84.0043C14.1522 82.8705 14.7554 81.9785 15.7371 81.3283C16.7189 80.678 17.7788 80.4685 18.9168 80.6997ZM20.946 85.4048C21.0966 84.636 20.9473 83.9126 20.4981 83.2344C20.0489 82.5563 19.4432 82.1398 18.6809 81.9849C17.9079 81.8279 17.1726 81.9804 16.4751 82.4424C15.7775 82.9044 15.3535 83.5198 15.2029 84.2885C15.0416 85.0551 15.1855 85.7774 15.6347 86.4556C16.0839 87.1338 16.695 87.5514 17.468 87.7084C18.2303 87.8632 18.9602 87.7097 19.6577 87.2477C20.3553 86.7857 20.7847 86.1714 20.946 85.4048Z" fill="#717171"/>
<path d="M13.4279 75.0299C13.4473 74.0529 13.8786 73.3879 14.7218 73.035C15.3793 72.7598 16.0281 72.8051 16.6683 73.171C17.2982 73.5322 17.7937 74.1442 18.1549 75.0072C18.7742 76.4866 18.6049 77.7074 17.6472 78.6697L16.5573 77.7812C17.2505 77.2103 17.3972 76.4472 16.9973 75.4918C16.7844 74.9832 16.5215 74.636 16.2085 74.4501C15.8884 74.2671 15.5568 74.2475 15.2138 74.391C14.878 74.5316 14.6648 74.7748 14.5744 75.1205C14.4736 75.4615 14.5215 75.867 14.7183 76.337L15.1295 77.3194L14.0147 77.786L13.7147 77.0695C13.5244 76.6149 13.2796 76.3008 12.9802 76.1273C12.6809 75.9538 12.3704 75.9343 12.0488 76.0689C11.7272 76.2035 11.5219 76.4253 11.4329 76.7342C11.3367 77.0461 11.3789 77.4178 11.5595 77.8493C11.8949 78.6507 12.4601 79.0479 13.2551 79.0412L13.1182 80.4296C11.8555 80.3423 10.9501 79.6438 10.4018 78.3339C10.0696 77.5403 10.0004 76.8131 10.1942 76.1525C10.3808 75.4949 10.7922 75.0329 11.4282 74.7667C12.1356 74.4706 12.8022 74.5583 13.4279 75.0299Z" fill="#717171"/>
<path d="M7.79312 71.1179C7.62827 70.4271 7.74881 69.7899 8.15471 69.2063C8.55896 68.6157 9.14403 68.229 9.90992 68.0462C10.668 67.8653 11.3646 67.9462 11.9998 68.2888C12.6255 68.6262 13.0208 69.1403 13.1856 69.8312L13.5428 71.3279L16.3562 70.6565L16.6435 71.8602L8.4375 73.8184L7.79312 71.1179ZM11.9195 70.1333C11.8346 69.7774 11.6318 69.516 11.3112 69.3492C10.9827 69.1842 10.6113 69.1511 10.1971 69.2499C9.78294 69.3488 9.47045 69.545 9.25968 69.8387C9.04109 70.1342 8.97426 70.4599 9.05918 70.8158L9.41634 72.3126L12.2767 71.63L11.9195 70.1333Z" fill="#717171"/>
<path d="M13.236 57.8776C14.0832 58.6558 14.5318 59.6331 14.5818 60.8096C14.6318 61.986 14.2678 63.0017 13.49 63.8567C12.7041 64.7042 11.7229 65.153 10.5464 65.2029C9.36995 65.2529 8.35811 64.8888 7.5109 64.1106C6.65562 63.3251 6.20299 62.344 6.15302 61.1676C6.10305 59.9911 6.47102 58.9791 7.25693 58.1316C8.03477 57.2766 9.01192 56.8242 10.1884 56.7742C11.3649 56.7242 12.3807 57.092 13.236 57.8776ZM12.5445 62.9547C13.0703 62.3741 13.316 61.6775 13.2815 60.8648C13.247 60.0521 12.9433 59.3827 12.3704 58.8565C11.7894 58.3229 11.081 58.0738 10.2451 58.1093C9.40919 58.1448 8.7283 58.4529 8.20244 59.0335C7.66851 59.6067 7.41881 60.2997 7.45333 61.1123C7.48785 61.925 7.79558 62.5982 8.37652 63.1318C8.9494 63.658 9.65379 63.9033 10.4897 63.8678C11.3256 63.8323 12.0105 63.5279 12.5445 62.9547Z" fill="#717171"/>
<path d="M9.97609 51.4494C10.0802 50.7614 10.4089 50.227 10.9622 49.8464C11.5155 49.4658 12.1615 49.3314 12.9003 49.4432C13.6392 49.555 14.2165 49.8745 14.6324 50.4018C15.0483 50.9291 15.2042 51.5367 15.1001 52.2248L14.6734 55.0442L6.33203 53.782L7.02435 49.207L8.33514 49.4053L7.82798 52.7568L9.73458 53.0453L9.97609 51.4494ZM13.8131 52.03C13.8636 51.6966 13.7902 51.4026 13.5931 51.1478C13.3892 50.8848 13.0965 50.7244 12.7152 50.6667C12.3339 50.609 12.0108 50.6762 11.7461 50.8683C11.4745 51.0522 11.3135 51.3108 11.263 51.6441L11.0215 53.2401L13.5716 53.626L13.8131 52.03Z" fill="#717171"/>
<path d="M17.3858 42.0069L16.8672 43.5646L12.0147 45.4351L15.8226 46.7027L15.3873 48.0102L7.38281 45.3456L7.81809 44.038L11.4087 45.2333L8.82491 41.0136L9.34346 39.4559L12.1716 43.9717L17.3858 42.0069Z" fill="#717171"/>
<path d="M20.3331 35.5802L15.3205 32.8151L18.448 38.9975L17.9339 39.9295L10.5469 35.8546L11.2038 34.6637L16.2164 37.4288L13.0889 31.2464L13.603 30.3144L20.99 34.3893L20.3331 35.5802Z" fill="#717171"/>
<path d="M31.8352 18.2051C32.2563 18.1373 32.6531 18.1765 33.0255 18.3229C33.3979 18.4693 33.7141 18.7212 33.974 19.0786C34.3805 19.6373 34.5144 20.2503 34.3758 20.9174C34.2372 21.5846 33.8736 22.1322 33.285 22.5604L30.2752 24.7498L25.3125 17.9275L28.1016 15.8986C28.6768 15.4802 29.2941 15.3094 29.9534 15.3862C30.6147 15.4516 31.1414 15.754 31.5337 16.2933C31.9638 16.8845 32.0643 17.5218 31.8352 18.2051ZM28.8673 16.9512L27.2319 18.1408L28.5364 19.9341L30.1718 18.7445C30.4259 18.5596 30.5785 18.3195 30.6295 18.024C30.6758 17.7221 30.6068 17.4444 30.4225 17.191C30.2382 16.9376 29.9976 16.7897 29.7008 16.7473C29.3993 16.6984 29.1215 16.7663 28.8673 16.9512ZM32.5194 21.5078C32.7869 21.3132 32.9448 21.0592 32.9931 20.7459C33.0433 20.4213 32.9715 20.1258 32.7777 19.8594C32.5839 19.593 32.3272 19.4369 32.0076 19.3912C31.6899 19.3342 31.3973 19.4029 31.1298 19.5976L29.2737 20.9477L30.6633 22.8579L32.5194 21.5078Z" fill="#717171"/>
<path d="M40.8297 18.1023L38.3471 12.944L37.313 19.7949L36.3539 20.2564L32.6953 12.6547L33.9208 12.0648L36.4034 17.2232L37.4375 10.3723L38.3967 9.91074L42.0552 17.5125L40.8297 18.1023Z" fill="#717171"/>
<path d="M43.8057 7.70021C44.4905 7.51185 45.1315 7.61053 45.7286 7.99626C46.3327 8.38008 46.7391 8.95158 46.948 9.71078C47.1547 10.4622 47.0977 11.1612 46.777 11.8077C46.4612 12.4446 45.9609 12.8572 45.2761 13.0456L43.7924 13.4537L44.5595 16.2426L43.3664 16.5708L41.1289 8.43652L43.8057 7.70021ZM44.9309 11.7906C45.2836 11.6935 45.5379 11.4819 45.6937 11.1558C45.8474 10.8218 45.8678 10.4496 45.7548 10.039C45.6419 9.6284 45.4351 9.3228 45.1343 9.12219C44.8315 8.91384 44.5037 8.85817 44.1509 8.95521L42.6673 9.36332L43.4472 12.1987L44.9309 11.7906Z" fill="#717171"/>
<path d="M57.3057 12.9669C56.5574 13.8406 55.5963 14.3228 54.4222 14.4136C53.2482 14.5043 52.2205 14.1758 51.3391 13.4281C50.4648 12.6721 49.9823 11.7071 49.8915 10.533C49.8007 9.359 50.1295 8.33514 50.8778 7.46145C51.6333 6.57943 52.598 6.09305 53.772 6.0023C54.9461 5.91155 55.9702 6.24419 56.8445 7.00023C57.7259 7.74794 58.212 8.70882 58.3028 9.88284C58.3935 11.0569 58.0612 12.0849 57.3057 12.9669ZM52.2077 12.4519C52.8062 12.9573 53.5109 13.1787 54.3219 13.116C55.1329 13.0533 55.7914 12.7265 56.2974 12.1358C56.8106 11.5366 57.0349 10.82 56.9704 9.98583C56.9059 9.15166 56.5744 8.48186 55.9759 7.97646C55.3845 7.46273 54.6834 7.23722 53.8723 7.29991C53.0613 7.3626 52.3993 7.69349 51.8861 8.2926C51.3801 8.88338 51.1594 9.59586 51.2239 10.43C51.2883 11.2642 51.6163 11.9382 52.2077 12.4519Z" fill="#717171"/>
<path d="M63.6251 9.88868C64.3163 9.96897 64.8616 10.279 65.2612 10.8188C65.6607 11.3586 65.8173 11.9997 65.7311 12.7419C65.6449 13.4841 65.3455 14.0722 64.8329 14.506C64.3203 14.9399 63.7184 15.1167 63.0272 15.0364L60.1946 14.7074L61.168 6.32739L65.7642 6.86123L65.6112 8.17809L62.2442 7.78703L62.0218 9.70246L63.6251 9.88868ZM63.1773 13.7435C63.5123 13.7824 63.8036 13.699 64.0514 13.4932C64.3072 13.2802 64.4574 12.9822 64.5019 12.5991C64.5464 12.216 64.4681 11.8955 64.2669 11.6376C64.0738 11.3725 63.8098 11.2205 63.4749 11.1816L61.8716 10.9954L61.574 13.5573L63.1773 13.7435Z" fill="#717171"/>
<path d="M74.3474 8.80414L75.6625 9.19824L73.2408 17.2796L71.9257 16.8855L72.974 13.3874L69.5432 12.3593L68.495 15.8574L67.1799 15.4633L69.6016 7.38196L70.9167 7.77606L69.9238 11.0894L73.3545 12.1175L74.3474 8.80414Z" fill="#717171"/>
<path d="M79.5851 20.3234L82.2384 15.2507L76.1268 18.5145L75.1837 18.0212L79.0938 10.5457L80.2989 11.176L77.6456 16.2487L83.7572 12.9849L84.7004 13.4782L80.7903 20.9537L79.5851 20.3234Z" fill="#717171"/>
<path d="M88.3877 24.0301L89.1216 24.6148L87.3915 26.7867L86.2661 25.8902L87.2163 24.6974L82.5679 20.9945L87.5312 14.7638L88.6567 15.6603L84.4732 20.9119L87.2623 23.1336L91.4457 17.882L92.5711 18.7785L88.3877 24.0301Z" fill="#717171"/>
<path d="M99.1206 25.8176L98.1302 26.6989L96.5054 24.8732L91.1937 29.6005L90.2452 28.5347L95.5569 23.8074L93.9237 21.9724L94.9141 21.0911L99.1206 25.8176Z" fill="#717171"/>
<path d="M99.477 33.9087C99.517 34.3334 99.4517 34.7267 99.2811 35.0886C99.1105 35.4506 98.8383 35.7495 98.4646 35.9854C97.8803 36.3542 97.2598 36.4474 96.6033 36.2652C95.9467 36.083 95.4242 35.6841 95.0357 35.0686L93.0493 31.9211L100.184 27.4185L102.024 30.3351C102.404 30.9367 102.534 31.5638 102.414 32.2166C102.305 32.8722 101.969 33.3779 101.405 33.7338C100.786 34.124 100.144 34.1823 99.477 33.9087ZM100.924 31.0298L99.8443 29.3197L97.969 30.5032L99.0483 32.2134C99.2161 32.4792 99.4457 32.6472 99.7371 32.7176C100.035 32.7837 100.317 32.7331 100.582 32.5659C100.847 32.3986 101.01 32.1683 101.072 31.875C101.141 31.5773 101.091 31.2956 100.924 31.0298ZM96.1365 34.3739C96.313 34.6537 96.556 34.828 96.8655 34.8967C97.1861 34.9682 97.4857 34.916 97.7643 34.7402C98.0429 34.5644 98.2155 34.3185 98.2821 34.0026C98.36 33.6894 98.3106 33.3929 98.1341 33.1132L96.9091 31.1722L94.9115 32.4329L96.1365 34.3739Z" fill="#717171"/>
<path d="M101.302 44.1121C100.251 43.6442 99.5142 42.8605 99.0923 41.7612C98.6704 40.6618 98.692 39.5831 99.1572 38.525C99.6323 37.4714 100.42 36.7336 101.519 36.3116C102.618 35.8897 103.693 35.9127 104.744 36.3807C105.805 36.8531 106.547 37.6389 106.968 38.7383C107.39 39.8376 107.364 40.9141 106.889 41.9677C106.423 43.0259 105.641 43.7659 104.542 44.1878C103.443 44.6097 102.362 44.5845 101.302 44.1121ZM100.341 39.079C100.027 39.7968 100.016 40.5354 100.307 41.2948C100.599 42.0542 101.1 42.5922 101.81 42.9086C102.531 43.2295 103.282 43.24 104.063 42.9402C104.844 42.6404 105.392 42.1316 105.705 41.4138C106.029 40.7004 106.045 39.964 105.753 39.2046C105.462 38.4452 104.956 37.9051 104.235 37.5842C103.525 37.2678 102.779 37.2594 101.998 37.5592C101.217 37.859 100.664 38.3656 100.341 39.079Z" fill="#717171"/>
<path d="M50 35.819H52.4379C52.4379 36.5896 52.8504 36.9749 53.6754 36.9749C54.0972 36.9749 54.4074 36.8362 54.6059 36.5588C54.8106 36.2814 54.913 35.8129 54.913 35.1532V33.5627C54.6835 33.8278 54.3609 34.0528 53.9453 34.2378C53.5359 34.4166 53.1481 34.5059 52.7822 34.5059C51.9571 34.5059 51.2872 34.2409 50.7723 33.7107C50.2574 33.1805 50 32.4377 50 31.4822V28.2642C50 27.1854 50.3443 26.3716 51.0328 25.823C51.7214 25.2743 52.6271 25 53.7499 25C54.2337 25 54.6866 25.0647 55.1084 25.1942C55.5302 25.3236 55.9086 25.5178 56.2436 25.7768C56.5847 26.0295 56.8546 26.3716 57.0531 26.8032C57.2516 27.2285 57.3508 27.7217 57.3508 28.2827V35.2457C57.3508 36.3369 57.0314 37.2369 56.3924 37.9458C55.7597 38.6486 54.8727 39 53.7313 39C52.6023 39 51.6966 38.7133 51.0142 38.14C50.3381 37.5667 50 36.793 50 35.819ZM52.4379 31.1215C52.4379 31.5222 52.5619 31.8397 52.8101 32.074C53.0582 32.3082 53.3467 32.4254 53.6754 32.4254C54.029 32.4254 54.3237 32.3144 54.5594 32.0925C54.7951 31.8644 54.913 31.5284 54.913 31.0845V28.3937C54.913 27.4813 54.5253 27.0251 53.7499 27.0251C53.3467 27.0251 53.0272 27.1453 52.7915 27.3857C52.5557 27.62 52.4379 27.9621 52.4379 28.4122V31.1215Z" fill="white"/>
<path d="M59.4537 34.8296C59.4537 33.2884 60.0679 32.1664 61.2961 31.4637C60.2292 30.8842 59.6957 29.8424 59.6957 28.3382C59.6957 27.2285 60.0182 26.3963 60.6634 25.8415C61.3147 25.2805 62.1677 25 63.2222 25C64.2768 25 65.1266 25.2805 65.7718 25.8415C66.4231 26.3963 66.7488 27.2285 66.7488 28.3382C66.7488 29.8855 66.2401 30.9273 65.2228 31.4637C65.8369 31.7411 66.2866 32.1449 66.572 32.675C66.8573 33.2052 67 33.9234 67 34.8296C67 36.2906 66.696 37.3509 66.0881 38.0106C65.4864 38.6702 64.5249 39 63.2036 39C61.9133 39 60.9642 38.6702 60.3563 38.0106C59.7546 37.3448 59.4537 36.2845 59.4537 34.8296ZM61.8916 35.0793C61.8916 35.7019 62.0064 36.1735 62.2359 36.4941C62.4654 36.8146 62.7942 36.9749 63.2222 36.9749C63.6502 36.9749 63.979 36.8115 64.2085 36.4848C64.4443 36.1581 64.5621 35.6834 64.5621 35.0608V34.321C64.5621 33.1189 64.1155 32.5178 63.2222 32.5178C62.3352 32.5178 61.8916 33.1312 61.8916 34.358V35.0793ZM62.0405 28.8468C62.0405 30.0242 62.4344 30.6129 63.2222 30.6129C64.01 30.6129 64.4039 30.0242 64.4039 28.8468C64.4039 28.1995 64.314 27.734 64.1341 27.4505C63.9542 27.1669 63.6502 27.0251 63.2222 27.0251C62.8066 27.0251 62.5057 27.1669 62.3197 27.4505C62.1336 27.734 62.0405 28.1995 62.0405 28.8468Z" fill="white"/>
<defs>
<clipPath id="clip0_454_1073">
<rect width="64.3273" height="13.7091" fill="white" transform="translate(27.418 51.6727)"/>
</clipPath>
</defs>
</svg>
