<svg width="228" height="312" viewBox="0 0 228 312" fill="none" xmlns="http://www.w3.org/2000/svg">
<path d="M228 312H0L82.832 0H228V312Z" fill="#D6121E"/>
<circle cx="171.5" cy="57.5" r="24.5" fill="white"/>
<path d="M173.48 46V61.552H169.64V46H173.48ZM169.768 68.144C169.256 67.6747 169 67.0987 169 66.416C169 65.7333 169.245 65.1467 169.736 64.656C170.248 64.1653 170.856 63.92 171.56 63.92C172.264 63.92 172.861 64.1547 173.352 64.624C173.864 65.0933 174.12 65.6693 174.12 66.352C174.12 67.0347 173.864 67.6213 173.352 68.112C172.861 68.6027 172.264 68.848 171.56 68.848C170.877 68.848 170.28 68.6133 169.768 68.144Z" fill="#717171"/>
</svg>
