<svg width="149" height="34" viewBox="0 0 149 34" fill="none" xmlns="http://www.w3.org/2000/svg">
<g clip-path="url(#clip0_879_2013)">
<path d="M149.003 1.85675C149.022 2.15244 148.954 2.44728 148.806 2.70203C148.657 2.95678 148.437 3.15935 148.173 3.28279C147.91 3.40622 147.616 3.44466 147.33 3.39299C147.045 3.34132 146.782 3.20198 146.576 2.99354C146.37 2.78509 146.231 2.51741 146.177 2.22615C146.123 1.93488 146.158 1.63383 146.276 1.36307C146.394 1.09232 146.589 0.864697 146.837 0.710514C147.084 0.556331 147.372 0.482897 147.661 0.499987C147.837 0.498058 148.011 0.531727 148.174 0.599047C148.336 0.666366 148.484 0.765999 148.609 0.892179C148.734 1.01836 148.833 1.16858 148.9 1.33415C148.968 1.49972 149.003 1.67734 149.003 1.85675ZM146.634 1.85675C146.617 2.00409 146.631 2.15346 146.674 2.29501C146.718 2.43657 146.79 2.5671 146.886 2.67801C146.983 2.78893 147.101 2.8777 147.233 2.9385C147.366 2.99929 147.509 3.03072 147.654 3.03072C147.799 3.03072 147.943 2.99929 148.075 2.9385C148.208 2.8777 148.326 2.78893 148.422 2.67801C148.519 2.5671 148.591 2.43657 148.634 2.29501C148.678 2.15346 148.691 2.00409 148.674 1.85675C148.691 1.70941 148.678 1.56005 148.634 1.41849C148.591 1.27693 148.519 1.1464 148.422 1.03549C148.326 0.924576 148.208 0.835798 148.075 0.775004C147.943 0.714209 147.799 0.682777 147.654 0.682777C147.509 0.682777 147.366 0.714209 147.233 0.775004C147.101 0.835798 146.983 0.924576 146.886 1.03549C146.79 1.1464 146.718 1.27693 146.674 1.41849C146.631 1.56005 146.617 1.70941 146.634 1.85675ZM147.447 2.55702H147.133V1.20025C147.305 1.18926 147.476 1.18926 147.647 1.20025C147.804 1.18098 147.962 1.22265 148.089 1.31696L148.232 1.59415C148.23 1.67138 148.202 1.7455 148.152 1.80397C148.103 1.86244 148.035 1.9017 147.961 1.91511V1.95887C148.089 1.95887 148.147 2.10476 148.189 2.27983C148.208 2.39574 148.241 2.50859 148.289 2.61537H147.961C147.92 2.50607 147.887 2.39395 147.861 2.27983C147.858 2.24763 147.848 2.2165 147.832 2.18841C147.816 2.16033 147.795 2.1359 147.77 2.11669C147.744 2.09748 147.715 2.08391 147.684 2.07683C147.653 2.06975 147.621 2.06933 147.59 2.07558H147.447V2.55702ZM147.447 1.7984H147.604C147.761 1.7984 147.904 1.7984 147.904 1.59415C147.904 1.38991 147.818 1.38991 147.619 1.38991H147.447V1.7984Z" fill="#0361A4"/>
<path fill-rule="evenodd" clip-rule="evenodd" d="M52.6629 9.82228V23.3753C52.6629 24.2507 53.0054 25.3156 54.3037 25.3156H56.7293C56.7293 26.5557 56.7293 28.2334 56.7293 29.4881H48.1685C43.6884 29.4881 40.9062 25.6074 40.9062 20.3408V10.3475C40.9204 5.66446 43.6884 0.5 47.0842 0.5H56.7864V4.19098C52.506 4.19098 52.6629 4.26393 52.6629 9.82228ZM66.0605 17.8462L67.0593 12.1711L68.0866 17.8024L66.0605 17.8462ZM59.4973 29.5172L65.0475 0.5H75.5344L80.728 29.4881H69.9129L68.7714 22.0186H65.1474L63.7206 29.4881L59.4973 29.5172ZM23.5849 17.9191L24.5694 12.2878L25.6823 17.9191H23.5849ZM27.6655 29.4881L26.3814 22.0186H22.7003L21.1308 29.4881H16.936L22.6575 0.5H33.2585L38.6376 29.4881H27.6655ZM145.162 0.5V5.11008H140.882V29.4881H130.609V5.11008H125.8V0.5H145.162ZM85.0939 29.4881L85.0369 0.5H95.5951V25.3011H99.5473V29.5464L85.0939 29.4881ZM0 29.4881V0.5H10.6867V25.5345H13.5403V29.4881H0ZM111.518 29.8528C108.978 29.5756 102.658 28.744 102.658 25.1698L102.586 0.5H113.187V23.565C113.187 25.1843 114.828 25.4615 116.555 25.3156C116.797 25.3419 117.043 25.3165 117.275 25.2411C117.508 25.1657 117.723 25.0419 117.907 24.8775C118.09 24.7131 118.238 24.5116 118.342 24.2857C118.446 24.0598 118.503 23.8144 118.509 23.565V0.5H122.333V25.3886C122.276 30.0862 114.258 29.7944 111.561 29.8528H111.518Z" fill="#D6121E"/>
<path d="M140.824 32.4642H0V33.5H140.824V32.4642Z" fill="#D6121E"/>
</g>
<defs>
<clipPath id="clip0_879_2013">
<rect width="149" height="33" fill="white" transform="translate(0 0.5)"/>
</clipPath>
</defs>
</svg>
